<?xml version="1.0" encoding="UTF-8" standalone="no"?>
<!DOCTYPE svg PUBLIC "-//W3C//DTD SVG 1.1//EN"
 "http://www.w3.org/Graphics/SVG/1.1/DTD/svg11.dtd">
<!-- Generated by graphviz version 14.1.2 (20260126.1125)
 -->
<!-- Title: src/act/alexandria/tests/actmol_util.cpp Pages: 1 -->
<svg width="366pt" height="98pt"
 viewBox="0.00 0.00 366.00 98.00" xmlns="http://www.w3.org/2000/svg" xmlns:xlink="http://www.w3.org/1999/xlink">
<g id="graph0" class="graph" transform="scale(1 1) rotate(0) translate(4 94.25)">
<title>src/act/alexandria/tests/actmol_util.cpp</title>
<!-- Node1 -->
<g id="Node000001" class="node">
<title>Node1</title>
<g id="a_Node000001"><a xlink:title="Implements test of bonded force routines.">
<polygon fill="#999999" stroke="#666666" points="195.38,-90.25 74.38,-90.25 74.38,-56.75 195.38,-56.75 195.38,-90.25"/>
<text xml:space="preserve" text-anchor="start" x="82.38" y="-76.75" font-family="Helvetica,sans-Serif" font-size="10.00">src/act/alexandria</text>
<text xml:space="preserve" text-anchor="middle" x="134.88" y="-64" font-family="Helvetica,sans-Serif" font-size="10.00">/tests/actmol_util.cpp</text>
</a>
</g>
</g>
<!-- Node2 -->
<g id="Node000002" class="node">
<title>Node2</title>
<g id="a_Node000002"><a xlink:href="actpre_8h.xhtml" target="_top" xlink:title="Prerequisite header file for ACT build.">
<polygon fill="white" stroke="#666666" points="55.75,-20.75 0,-20.75 0,0 55.75,0 55.75,-20.75"/>
<text xml:space="preserve" text-anchor="middle" x="27.88" y="-7.25" font-family="Helvetica,sans-Serif" font-size="10.00">actpre.h</text>
</a>
</g>
</g>
<!-- Node1&#45;&gt;Node2 -->
<g id="edge1_Node000001_Node000002" class="edge">
<title>Node1&#45;&gt;Node2</title>
<g id="a_edge1_Node000001_Node000002"><a xlink:title=" ">
<path fill="none" stroke="#63b8ff" d="M106.48,-56.28C90.43,-47.11 70.49,-35.72 54.7,-26.7"/>
<polygon fill="#63b8ff" stroke="#63b8ff" points="56.75,-23.84 46.33,-21.92 53.27,-29.92 56.75,-23.84"/>
</a>
</g>
</g>
<!-- Node3 -->
<g id="Node000003" class="node">
<title>Node3</title>
<g id="a_Node000003"><a xlink:title=" ">
<polygon fill="#e0e0e0" stroke="#999999" points="195.75,-20.75 74,-20.75 74,0 195.75,0 195.75,-20.75"/>
<text xml:space="preserve" text-anchor="middle" x="134.88" y="-7.25" font-family="Helvetica,sans-Serif" font-size="10.00">testutils/testasserts.h</text>
</a>
</g>
</g>
<!-- Node1&#45;&gt;Node3 -->
<g id="edge2_Node000001_Node000003" class="edge">
<title>Node1&#45;&gt;Node3</title>
<g id="a_edge2_Node000001_Node000003"><a xlink:title=" ">
<path fill="none" stroke="#63b8ff" d="M134.88,-56.44C134.88,-49.1 134.88,-40.32 134.88,-32.46"/>
<polygon fill="#63b8ff" stroke="#63b8ff" points="138.38,-32.73 134.88,-22.73 131.38,-32.73 138.38,-32.73"/>
</a>
</g>
</g>
<!-- Node4 -->
<g id="Node000004" class="node">
<title>Node4</title>
<g id="a_Node000004"><a xlink:title=" ">
<polygon fill="#e0e0e0" stroke="#999999" points="358,-20.75 213.75,-20.75 213.75,0 358,0 358,-20.75"/>
<text xml:space="preserve" text-anchor="middle" x="285.88" y="-7.25" font-family="Helvetica,sans-Serif" font-size="10.00">testutils/testfilemanager.h</text>
</a>
</g>
</g>
<!-- Node1&#45;&gt;Node4 -->
<g id="edge3_Node000001_Node000004" class="edge">
<title>Node1&#45;&gt;Node4</title>
<g id="a_edge3_Node000001_Node000004"><a xlink:title=" ">
<path fill="none" stroke="#63b8ff" d="M174.94,-56.28C198.67,-46.68 228.44,-34.63 251.16,-25.43"/>
<polygon fill="#63b8ff" stroke="#63b8ff" points="252.33,-28.73 260.29,-21.73 249.7,-22.24 252.33,-28.73"/>
</a>
</g>
</g>
</g>
</svg>
