<?xml version="1.0" encoding="UTF-8" standalone="no"?>
<!DOCTYPE svg PUBLIC "-//W3C//DTD SVG 1.1//EN"
 "http://www.w3.org/Graphics/SVG/1.1/DTD/svg11.dtd">
<!-- Generated by graphviz version 14.1.2 (20260126.1125)
 -->
<!-- Title: src/actpre.h Pages: 1 -->
<svg width="787pt" height="111pt"
 viewBox="0.00 0.00 787.00 111.00" xmlns="http://www.w3.org/2000/svg" xmlns:xlink="http://www.w3.org/1999/xlink">
<g id="graph0" class="graph" transform="scale(1 1) rotate(0) translate(4 107)">
<title>src/actpre.h</title>
<!-- Node1 -->
<g id="Node000001" class="node">
<title>Node1</title>
<g id="a_Node000001"><a xlink:title="Prerequisite header file for ACT build.">
<polygon fill="#999999" stroke="#666666" points="435,-103 362,-103 362,-82.25 435,-82.25 435,-103"/>
<text xml:space="preserve" text-anchor="middle" x="398.5" y="-89.5" font-family="Helvetica,sans-Serif" font-size="10.00">src/actpre.h</text>
</a>
</g>
</g>
<!-- Node2 -->
<g id="Node000002" class="node">
<title>Node2</title>
<g id="a_Node000002"><a xlink:href="actmol__util_8cpp.xhtml" target="_top" xlink:title="Implements test of bonded force routines.">
<polygon fill="white" stroke="#666666" points="121,-39.88 0,-39.88 0,-6.38 121,-6.38 121,-39.88"/>
<text xml:space="preserve" text-anchor="start" x="8" y="-26.38" font-family="Helvetica,sans-Serif" font-size="10.00">src/act/alexandria</text>
<text xml:space="preserve" text-anchor="middle" x="60.5" y="-13.62" font-family="Helvetica,sans-Serif" font-size="10.00">/tests/actmol_util.cpp</text>
</a>
</g>
</g>
<!-- Node1&#45;&gt;Node2 -->
<g id="edge1_Node000001_Node000002" class="edge">
<title>Node1&#45;&gt;Node2</title>
<g id="a_edge1_Node000001_Node000002"><a xlink:title=" ">
<path fill="none" stroke="#63b8ff" d="M350.3,-85.61C296.14,-78.37 205.81,-64.82 129.5,-46.25 122.53,-44.55 115.25,-42.52 108.13,-40.37"/>
<polygon fill="#63b8ff" stroke="#63b8ff" points="349.74,-89.07 360.11,-86.91 350.66,-82.13 349.74,-89.07"/>
</a>
</g>
</g>
<!-- Node3 -->
<g id="Node000003" class="node">
<title>Node3</title>
<g id="a_Node000003"><a xlink:href="forcecomputerTest_8cpp.xhtml" target="_top" xlink:title="Implements test of bonded force routines.">
<polygon fill="white" stroke="#666666" points="296,-39.88 139,-39.88 139,-6.38 296,-6.38 296,-39.88"/>
<text xml:space="preserve" text-anchor="start" x="147" y="-26.38" font-family="Helvetica,sans-Serif" font-size="10.00">src/act/alexandria</text>
<text xml:space="preserve" text-anchor="middle" x="217.5" y="-13.62" font-family="Helvetica,sans-Serif" font-size="10.00">/tests/forcecomputerTest.cpp</text>
</a>
</g>
</g>
<!-- Node1&#45;&gt;Node3 -->
<g id="edge2_Node000001_Node000003" class="edge">
<title>Node1&#45;&gt;Node3</title>
<g id="a_edge2_Node000001_Node000003"><a xlink:title=" ">
<path fill="none" stroke="#63b8ff" d="M361.63,-77.87C332.49,-67.01 291.75,-51.81 261.02,-40.35"/>
<polygon fill="#63b8ff" stroke="#63b8ff" points="360.17,-81.07 370.76,-81.28 362.62,-74.51 360.17,-81.07"/>
</a>
</g>
</g>
<!-- Node4 -->
<g id="Node000004" class="node">
<title>Node4</title>
<g id="a_Node000004"><a xlink:href="forceComputerImplementationTest_8cpp.xhtml" target="_top" xlink:title="Implements test of bonded force routines.">
<polygon fill="white" stroke="#666666" points="483.38,-46.25 313.62,-46.25 313.62,0 483.38,0 483.38,-46.25"/>
<text xml:space="preserve" text-anchor="start" x="321.62" y="-32.75" font-family="Helvetica,sans-Serif" font-size="10.00">src/act/forces/tests</text>
<text xml:space="preserve" text-anchor="start" x="321.62" y="-20" font-family="Helvetica,sans-Serif" font-size="10.00">/forceComputerImplementation</text>
<text xml:space="preserve" text-anchor="middle" x="398.5" y="-7.25" font-family="Helvetica,sans-Serif" font-size="10.00">Test.cpp</text>
</a>
</g>
</g>
<!-- Node1&#45;&gt;Node4 -->
<g id="edge3_Node000001_Node000004" class="edge">
<title>Node1&#45;&gt;Node4</title>
<g id="a_edge3_Node000001_Node000004"><a xlink:title=" ">
<path fill="none" stroke="#63b8ff" d="M398.5,-70.46C398.5,-62.87 398.5,-54.3 398.5,-46.61"/>
<polygon fill="#63b8ff" stroke="#63b8ff" points="395,-70.44 398.5,-80.44 402,-70.44 395,-70.44"/>
</a>
</g>
</g>
<!-- Node5 -->
<g id="Node000005" class="node">
<title>Node5</title>
<g id="a_Node000005"><a xlink:href="forcecomputerutilsTest_8cpp.xhtml" target="_top" xlink:title="Implements test of bonded force routines.">
<polygon fill="white" stroke="#666666" points="652,-39.88 501,-39.88 501,-6.38 652,-6.38 652,-39.88"/>
<text xml:space="preserve" text-anchor="start" x="509" y="-26.38" font-family="Helvetica,sans-Serif" font-size="10.00">src/act/forces/tests</text>
<text xml:space="preserve" text-anchor="middle" x="576.5" y="-13.62" font-family="Helvetica,sans-Serif" font-size="10.00">/forcecomputerutilsTest.cpp</text>
</a>
</g>
</g>
<!-- Node1&#45;&gt;Node5 -->
<g id="edge4_Node000001_Node000005" class="edge">
<title>Node1&#45;&gt;Node5</title>
<g id="a_edge4_Node000001_Node000005"><a xlink:title=" ">
<path fill="none" stroke="#63b8ff" d="M435.14,-77.73C463.77,-66.87 503.61,-51.76 533.71,-40.35"/>
<polygon fill="#63b8ff" stroke="#63b8ff" points="433.91,-74.45 425.8,-81.27 436.39,-81 433.91,-74.45"/>
</a>
</g>
</g>
<!-- Node6 -->
<g id="Node000006" class="node">
<title>Node6</title>
<g id="a_Node000006"><a xlink:href="vsiteTest_8cpp.xhtml" target="_top" xlink:title="Implements test of bonded force routines.">
<polygon fill="white" stroke="#666666" points="778.62,-39.88 670.38,-39.88 670.38,-6.38 778.62,-6.38 778.62,-39.88"/>
<text xml:space="preserve" text-anchor="start" x="678.38" y="-26.38" font-family="Helvetica,sans-Serif" font-size="10.00">src/act/forces/tests</text>
<text xml:space="preserve" text-anchor="middle" x="724.5" y="-13.62" font-family="Helvetica,sans-Serif" font-size="10.00">/vsiteTest.cpp</text>
</a>
</g>
</g>
<!-- Node1&#45;&gt;Node6 -->
<g id="edge5_Node000001_Node000006" class="edge">
<title>Node1&#45;&gt;Node6</title>
<g id="a_edge5_Node000001_Node000006"><a xlink:title=" ">
<path fill="none" stroke="#63b8ff" d="M446.17,-85.84C499.25,-78.83 587.34,-65.52 661.5,-46.25 668.01,-44.56 674.8,-42.5 681.41,-40.32"/>
<polygon fill="#63b8ff" stroke="#63b8ff" points="446.04,-82.33 436.57,-87.08 446.94,-89.27 446.04,-82.33"/>
</a>
</g>
</g>
</g>
</svg>
