<?xml version="1.0" encoding="UTF-8" standalone="no"?>
<!DOCTYPE svg PUBLIC "-//W3C//DTD SVG 1.1//EN"
 "http://www.w3.org/Graphics/SVG/1.1/DTD/svg11.dtd">
<!-- Generated by graphviz version 14.1.2 (20260126.1125)
 -->
<!-- Title: alexandria::ConfigHandler Pages: 1 -->
<svg width="487pt" height="86pt"
 viewBox="0.00 0.00 487.00 86.00" xmlns="http://www.w3.org/2000/svg" xmlns:xlink="http://www.w3.org/1999/xlink">
<g id="graph0" class="graph" transform="scale(1 1) rotate(0) translate(4 81.5)">
<title>alexandria::ConfigHandler</title>
<!-- Node1 -->
<g id="Node000001" class="node">
<title>Node1</title>
<g id="a_Node000001"><a xlink:title=" ">
<polygon fill="#999999" stroke="#666666" points="340.75,-77.5 198,-77.5 198,-56.75 340.75,-56.75 340.75,-77.5"/>
<text xml:space="preserve" text-anchor="middle" x="269.38" y="-64" font-family="Helvetica,sans-Serif" font-size="10.00">alexandria::ConfigHandler</text>
</a>
</g>
</g>
<!-- Node2 -->
<g id="Node000002" class="node">
<title>Node2</title>
<g id="a_Node000002"><a xlink:href="classalexandria_1_1BayesConfigHandler.xhtml" target="_top" xlink:title=" ">
<polygon fill="white" stroke="#666666" points="172.75,-20.75 0,-20.75 0,0 172.75,0 172.75,-20.75"/>
<text xml:space="preserve" text-anchor="middle" x="86.38" y="-7.25" font-family="Helvetica,sans-Serif" font-size="10.00">alexandria::BayesConfigHandler</text>
</a>
</g>
</g>
<!-- Node1&#45;&gt;Node2 -->
<g id="edge1_Node000001_Node000002" class="edge">
<title>Node1&#45;&gt;Node2</title>
<g id="a_edge1_Node000001_Node000002"><a xlink:title=" ">
<path fill="none" stroke="#63b8ff" d="M226.02,-53.16C193.25,-43.35 148.96,-30.1 119.12,-21.17"/>
<polygon fill="#63b8ff" stroke="#63b8ff" points="224.62,-56.39 235.21,-55.9 226.63,-49.68 224.62,-56.39"/>
</a>
</g>
</g>
<!-- Node3 -->
<g id="Node000003" class="node">
<title>Node3</title>
<g id="a_Node000003"><a xlink:href="classalexandria_1_1GAConfigHandler.xhtml" target="_top" xlink:title=" ">
<polygon fill="white" stroke="#666666" points="347.88,-20.75 190.88,-20.75 190.88,0 347.88,0 347.88,-20.75"/>
<text xml:space="preserve" text-anchor="middle" x="269.38" y="-7.25" font-family="Helvetica,sans-Serif" font-size="10.00">alexandria::GAConfigHandler</text>
</a>
</g>
</g>
<!-- Node1&#45;&gt;Node3 -->
<g id="edge2_Node000001_Node000003" class="edge">
<title>Node1&#45;&gt;Node3</title>
<g id="a_edge2_Node000001_Node000003"><a xlink:title=" ">
<path fill="none" stroke="#63b8ff" d="M269.38,-44.88C269.38,-36.66 269.38,-27.68 269.38,-21.08"/>
<polygon fill="#63b8ff" stroke="#63b8ff" points="265.88,-44.82 269.38,-54.82 272.88,-44.82 265.88,-44.82"/>
</a>
</g>
</g>
<!-- Node4 -->
<g id="Node000004" class="node">
<title>Node4</title>
<g id="a_Node000004"><a xlink:href="classalexandria_1_1OptACM.xhtml" target="_top" xlink:title="FIXME: The class that does all the optimization work. This class inherits the MolGen class that holds...">
<polygon fill="white" stroke="#666666" points="479.12,-20.75 365.62,-20.75 365.62,0 479.12,0 479.12,-20.75"/>
<text xml:space="preserve" text-anchor="middle" x="422.38" y="-7.25" font-family="Helvetica,sans-Serif" font-size="10.00">alexandria::OptACM</text>
</a>
</g>
</g>
<!-- Node1&#45;&gt;Node4 -->
<g id="edge3_Node000001_Node000004" class="edge">
<title>Node1&#45;&gt;Node4</title>
<g id="a_edge3_Node000001_Node000004"><a xlink:title=" ">
<path fill="none" stroke="#63b8ff" d="M307.42,-52.51C334.62,-42.78 370.59,-29.9 395,-21.17"/>
<polygon fill="#63b8ff" stroke="#63b8ff" points="306.39,-49.16 298.15,-55.83 308.75,-55.75 306.39,-49.16"/>
</a>
</g>
</g>
</g>
</svg>
