<?xml version="1.0" encoding="UTF-8" standalone="no"?>
<!DOCTYPE svg PUBLIC "-//W3C//DTD SVG 1.1//EN"
 "http://www.w3.org/Graphics/SVG/1.1/DTD/svg11.dtd">
<!-- Generated by graphviz version 14.1.2 (20260126.1125)
 -->
<!-- Title: ga::Sorter Pages: 1 -->
<svg width="212pt" height="86pt"
 viewBox="0.00 0.00 212.00 86.00" xmlns="http://www.w3.org/2000/svg" xmlns:xlink="http://www.w3.org/1999/xlink">
<g id="graph0" class="graph" transform="scale(1 1) rotate(0) translate(4 81.5)">
<title>ga::Sorter</title>
<!-- Node1 -->
<g id="Node000001" class="node">
<title>Node1</title>
<g id="a_Node000001"><a xlink:title="Abstract class for sorting the population based on the fitness of each Individual.">
<polygon fill="#999999" stroke="#666666" points="134,-77.5 70.75,-77.5 70.75,-56.75 134,-56.75 134,-77.5"/>
<text xml:space="preserve" text-anchor="middle" x="102.38" y="-64" font-family="Helvetica,sans-Serif" font-size="10.00">ga::Sorter</text>
</a>
</g>
</g>
<!-- Node2 -->
<g id="Node000002" class="node">
<title>Node2</title>
<g id="a_Node000002"><a xlink:href="classga_1_1EmptySorter.xhtml" target="_top" xlink:title="Sorter which does nothing. Will be used when sorting is not required.">
<polygon fill="white" stroke="#666666" points="94.75,-20.75 0,-20.75 0,0 94.75,0 94.75,-20.75"/>
<text xml:space="preserve" text-anchor="middle" x="47.38" y="-7.25" font-family="Helvetica,sans-Serif" font-size="10.00">ga::EmptySorter</text>
</a>
</g>
</g>
<!-- Node1&#45;&gt;Node2 -->
<g id="edge1_Node000001_Node000002" class="edge">
<title>Node1&#45;&gt;Node2</title>
<g id="a_edge1_Node000001_Node000002"><a xlink:title=" ">
<path fill="none" stroke="#63b8ff" d="M84.47,-48.3C75.38,-39.25 64.69,-28.61 57.12,-21.08"/>
<polygon fill="#63b8ff" stroke="#63b8ff" points="81.91,-50.69 91.47,-55.27 86.85,-45.73 81.91,-50.69"/>
</a>
</g>
</g>
<!-- Node3 -->
<g id="Node000003" class="node">
<title>Node3</title>
<g id="a_Node000003"><a xlink:href="classga_1_1QuickSorter.xhtml" target="_top" xlink:title="Class for Quick&#45;sort.">
<polygon fill="white" stroke="#666666" points="203.88,-20.75 112.88,-20.75 112.88,0 203.88,0 203.88,-20.75"/>
<text xml:space="preserve" text-anchor="middle" x="158.38" y="-7.25" font-family="Helvetica,sans-Serif" font-size="10.00">ga::QuickSorter</text>
</a>
</g>
</g>
<!-- Node1&#45;&gt;Node3 -->
<g id="edge2_Node000001_Node000003" class="edge">
<title>Node1&#45;&gt;Node3</title>
<g id="a_edge2_Node000001_Node000003"><a xlink:title=" ">
<path fill="none" stroke="#63b8ff" d="M120.61,-48.3C129.86,-39.25 140.75,-28.61 148.45,-21.08"/>
<polygon fill="#63b8ff" stroke="#63b8ff" points="118.17,-45.79 113.47,-55.28 123.07,-50.79 118.17,-45.79"/>
</a>
</g>
</g>
</g>
</svg>
