<?xml version="1.0" encoding="UTF-8" standalone="no"?>
<!DOCTYPE svg PUBLIC "-//W3C//DTD SVG 1.1//EN"
 "http://www.w3.org/Graphics/SVG/1.1/DTD/svg11.dtd">
<!-- Generated by graphviz version 14.1.2 (20260126.1125)
 -->
<!-- Title: ga::Terminator Pages: 1 -->
<svg width="292pt" height="86pt"
 viewBox="0.00 0.00 292.00 86.00" xmlns="http://www.w3.org/2000/svg" xmlns:xlink="http://www.w3.org/1999/xlink">
<g id="graph0" class="graph" transform="scale(1 1) rotate(0) translate(4 81.5)">
<title>ga::Terminator</title>
<!-- Node1 -->
<g id="Node000001" class="node">
<title>Node1</title>
<g id="a_Node000001"><a xlink:title="Abstract class to check for evolution termination conditions.">
<polygon fill="#999999" stroke="#666666" points="188.5,-77.5 102,-77.5 102,-56.75 188.5,-56.75 188.5,-77.5"/>
<text xml:space="preserve" text-anchor="middle" x="145.25" y="-64" font-family="Helvetica,sans-Serif" font-size="10.00">ga::Terminator</text>
</a>
</g>
</g>
<!-- Node2 -->
<g id="Node000002" class="node">
<title>Node2</title>
<g id="a_Node000002"><a xlink:href="classga_1_1GenerationTerminator.xhtml" target="_top" xlink:title="Terminator which stops evolution after a given amount of generations.">
<polygon fill="white" stroke="#666666" points="140.5,-20.75 0,-20.75 0,0 140.5,0 140.5,-20.75"/>
<text xml:space="preserve" text-anchor="middle" x="70.25" y="-7.25" font-family="Helvetica,sans-Serif" font-size="10.00">ga::GenerationTerminator</text>
</a>
</g>
</g>
<!-- Node1&#45;&gt;Node2 -->
<g id="edge1_Node000001_Node000002" class="edge">
<title>Node1&#45;&gt;Node2</title>
<g id="a_edge1_Node000001_Node000002"><a xlink:title=" ">
<path fill="none" stroke="#63b8ff" d="M122.73,-49.69C109.95,-40.36 94.39,-29 83.54,-21.08"/>
<polygon fill="#63b8ff" stroke="#63b8ff" points="120.48,-52.38 130.62,-55.44 124.61,-46.72 120.48,-52.38"/>
</a>
</g>
</g>
<!-- Node3 -->
<g id="Node000003" class="node">
<title>Node3</title>
<g id="a_Node000003"><a xlink:href="classga_1_1TestGenTerminator.xhtml" target="_top" xlink:title="Terminator which stops evolution after the best test fitness has not improved in a given number of ge...">
<polygon fill="white" stroke="#666666" points="284,-20.75 158.5,-20.75 158.5,0 284,0 284,-20.75"/>
<text xml:space="preserve" text-anchor="middle" x="221.25" y="-7.25" font-family="Helvetica,sans-Serif" font-size="10.00">ga::TestGenTerminator</text>
</a>
</g>
</g>
<!-- Node1&#45;&gt;Node3 -->
<g id="edge2_Node000001_Node000003" class="edge">
<title>Node1&#45;&gt;Node3</title>
<g id="a_edge2_Node000001_Node000003"><a xlink:title=" ">
<path fill="none" stroke="#63b8ff" d="M168.07,-49.69C181.02,-40.36 196.79,-29 207.78,-21.08"/>
<polygon fill="#63b8ff" stroke="#63b8ff" points="166.13,-46.77 160.07,-55.45 170.22,-52.45 166.13,-46.77"/>
</a>
</g>
</g>
</g>
</svg>
