<?xml version="1.0" encoding="UTF-8" standalone="no"?>
<!DOCTYPE svg PUBLIC "-//W3C//DTD SVG 1.1//EN"
 "http://www.w3.org/Graphics/SVG/1.1/DTD/svg11.dtd">
<!-- Generated by graphviz version 14.1.2 (20260126.1125)
 -->
<!-- Title: ga::Mutator Pages: 1 -->
<svg width="318pt" height="86pt"
 viewBox="0.00 0.00 318.00 86.00" xmlns="http://www.w3.org/2000/svg" xmlns:xlink="http://www.w3.org/1999/xlink">
<g id="graph0" class="graph" transform="scale(1 1) rotate(0) translate(4 81.5)">
<title>ga::Mutator</title>
<!-- Node1 -->
<g id="Node000001" class="node">
<title>Node1</title>
<g id="a_Node000001"><a xlink:title="Abstract class for gene mutation of Genome objects.">
<polygon fill="#999999" stroke="#666666" points="189.88,-77.5 117.62,-77.5 117.62,-56.75 189.88,-56.75 189.88,-77.5"/>
<text xml:space="preserve" text-anchor="middle" x="153.75" y="-64" font-family="Helvetica,sans-Serif" font-size="10.00">ga::Mutator</text>
</a>
</g>
</g>
<!-- Node2 -->
<g id="Node000002" class="node">
<title>Node2</title>
<g id="a_Node000002"><a xlink:href="classalexandria_1_1MCMCMutator.xhtml" target="_top" xlink:title="Mutator which applies MCMC optimization to an ACMIndividual. It can also conduct sensitivity analysis...">
<polygon fill="white" stroke="#666666" points="143.5,-20.75 0,-20.75 0,0 143.5,0 143.5,-20.75"/>
<text xml:space="preserve" text-anchor="middle" x="71.75" y="-7.25" font-family="Helvetica,sans-Serif" font-size="10.00">alexandria::MCMCMutator</text>
</a>
</g>
</g>
<!-- Node1&#45;&gt;Node2 -->
<g id="edge1_Node000001_Node000002" class="edge">
<title>Node1&#45;&gt;Node2</title>
<g id="a_edge1_Node000001_Node000002"><a xlink:title=" ">
<path fill="none" stroke="#63b8ff" d="M129.54,-49.96C115.49,-40.58 98.26,-29.07 86.28,-21.08"/>
<polygon fill="#63b8ff" stroke="#63b8ff" points="127.57,-52.85 137.83,-55.5 131.46,-47.03 127.57,-52.85"/>
</a>
</g>
</g>
<!-- Node3 -->
<g id="Node000003" class="node">
<title>Node3</title>
<g id="a_Node000003"><a xlink:href="classalexandria_1_1PercentMutator.xhtml" target="_top" xlink:title=" ">
<polygon fill="white" stroke="#666666" points="310.12,-20.75 161.38,-20.75 161.38,0 310.12,0 310.12,-20.75"/>
<text xml:space="preserve" text-anchor="middle" x="235.75" y="-7.25" font-family="Helvetica,sans-Serif" font-size="10.00">alexandria::PercentMutator</text>
</a>
</g>
</g>
<!-- Node1&#45;&gt;Node3 -->
<g id="edge2_Node000001_Node000003" class="edge">
<title>Node1&#45;&gt;Node3</title>
<g id="a_edge2_Node000001_Node000003"><a xlink:title=" ">
<path fill="none" stroke="#63b8ff" d="M177.96,-49.96C192.01,-40.58 209.24,-29.07 221.22,-21.08"/>
<polygon fill="#63b8ff" stroke="#63b8ff" points="176.04,-47.03 169.67,-55.5 179.93,-52.85 176.04,-47.03"/>
</a>
</g>
</g>
</g>
</svg>
