<?xml version="1.0" encoding="UTF-8" standalone="no"?>
<!DOCTYPE svg PUBLIC "-//W3C//DTD SVG 1.1//EN"
 "http://www.w3.org/Graphics/SVG/1.1/DTD/svg11.dtd">
<!-- Generated by graphviz version 14.1.2 (20260126.1125)
 -->
<!-- Title: alexandria::DevComputer Pages: 1 -->
<svg width="363pt" height="262pt"
 viewBox="0.00 0.00 363.00 262.00" xmlns="http://www.w3.org/2000/svg" xmlns:xlink="http://www.w3.org/1999/xlink">
<g id="graph0" class="graph" transform="scale(1 1) rotate(0) translate(4 257.75)">
<title>alexandria::DevComputer</title>
<!-- Node1 -->
<g id="Node000001" class="node">
<title>Node1</title>
<g id="a_Node000001"><a xlink:title=" ">
<polygon fill="#999999" stroke="#666666" points="141.25,-143.75 0,-143.75 0,-123 141.25,-123 141.25,-143.75"/>
<text xml:space="preserve" text-anchor="middle" x="70.62" y="-130.25" font-family="Helvetica,sans-Serif" font-size="10.00">alexandria::DevComputer</text>
</a>
</g>
</g>
<!-- Node2 -->
<g id="Node000002" class="node">
<title>Node2</title>
<g id="a_Node000002"><a xlink:href="classalexandria_1_1BoundsDevComputer.xhtml" target="_top" xlink:title=" ">
<polygon fill="white" stroke="#666666" points="354.5,-253.75 177.25,-253.75 177.25,-233 354.5,-233 354.5,-253.75"/>
<text xml:space="preserve" text-anchor="middle" x="265.88" y="-240.25" font-family="Helvetica,sans-Serif" font-size="10.00">alexandria::BoundsDevComputer</text>
</a>
</g>
</g>
<!-- Node1&#45;&gt;Node2 -->
<g id="edge1_Node000001_Node000002" class="edge">
<title>Node1&#45;&gt;Node2</title>
<g id="a_edge1_Node000001_Node000002"><a xlink:title=" ">
<path fill="none" stroke="#63b8ff" d="M88.53,-152.46C107.9,-173.11 141.61,-205.49 177.25,-223.38 184.64,-227.08 192.73,-230.11 200.91,-232.59"/>
<polygon fill="#63b8ff" stroke="#63b8ff" points="91.27,-150.27 81.93,-145.26 86.11,-155 91.27,-150.27"/>
</a>
</g>
</g>
<!-- Node3 -->
<g id="Node000003" class="node">
<title>Node3</title>
<g id="a_Node000003"><a xlink:href="classalexandria_1_1EspDevComputer.xhtml" target="_top" xlink:title=" ">
<polygon fill="white" stroke="#666666" points="345.12,-214.75 186.62,-214.75 186.62,-194 345.12,-194 345.12,-214.75"/>
<text xml:space="preserve" text-anchor="middle" x="265.88" y="-201.25" font-family="Helvetica,sans-Serif" font-size="10.00">alexandria::EspDevComputer</text>
</a>
</g>
</g>
<!-- Node1&#45;&gt;Node3 -->
<g id="edge2_Node000001_Node000003" class="edge">
<title>Node1&#45;&gt;Node3</title>
<g id="a_edge2_Node000001_Node000003"><a xlink:title=" ">
<path fill="none" stroke="#63b8ff" d="M100.16,-149.8C120.96,-161.18 150.13,-175.92 177.25,-185.38 186.22,-188.5 195.88,-191.22 205.41,-193.54"/>
<polygon fill="#63b8ff" stroke="#63b8ff" points="101.87,-146.75 91.43,-144.94 98.46,-152.86 101.87,-146.75"/>
</a>
</g>
</g>
<!-- Node4 -->
<g id="Node000004" class="node">
<title>Node4</title>
<g id="a_Node000004"><a xlink:href="classalexandria_1_1ForceEnergyDevComputer.xhtml" target="_top" xlink:title=" ">
<polygon fill="white" stroke="#666666" points="342.5,-176.12 189.25,-176.12 189.25,-142.62 342.5,-142.62 342.5,-176.12"/>
<text xml:space="preserve" text-anchor="start" x="197.25" y="-162.62" font-family="Helvetica,sans-Serif" font-size="10.00">alexandria::ForceEnergyDev</text>
<text xml:space="preserve" text-anchor="middle" x="265.88" y="-149.88" font-family="Helvetica,sans-Serif" font-size="10.00">Computer</text>
</a>
</g>
</g>
<!-- Node1&#45;&gt;Node4 -->
<g id="edge3_Node000001_Node000004" class="edge">
<title>Node1&#45;&gt;Node4</title>
<g id="a_edge3_Node000001_Node000004"><a xlink:title=" ">
<path fill="none" stroke="#63b8ff" d="M152.96,-144.32C164.86,-145.92 177.08,-147.56 188.87,-149.15"/>
<polygon fill="#63b8ff" stroke="#63b8ff" points="153.54,-140.86 143.17,-143 152.61,-147.8 153.54,-140.86"/>
</a>
</g>
</g>
<!-- Node5 -->
<g id="Node000005" class="node">
<title>Node5</title>
<g id="a_Node000005"><a xlink:href="classalexandria_1_1HarmonicsDevComputer.xhtml" target="_top" xlink:title=" ">
<polygon fill="white" stroke="#666666" points="338.75,-124.12 193,-124.12 193,-90.62 338.75,-90.62 338.75,-124.12"/>
<text xml:space="preserve" text-anchor="start" x="201" y="-110.62" font-family="Helvetica,sans-Serif" font-size="10.00">alexandria::HarmonicsDev</text>
<text xml:space="preserve" text-anchor="middle" x="265.88" y="-97.88" font-family="Helvetica,sans-Serif" font-size="10.00">Computer</text>
</a>
</g>
</g>
<!-- Node1&#45;&gt;Node5 -->
<g id="edge4_Node000001_Node000005" class="edge">
<title>Node1&#45;&gt;Node5</title>
<g id="a_edge4_Node000001_Node000005"><a xlink:title=" ">
<path fill="none" stroke="#63b8ff" d="M152.72,-122.46C166.03,-120.67 179.73,-118.83 192.8,-117.07"/>
<polygon fill="#63b8ff" stroke="#63b8ff" points="152.61,-118.95 143.17,-123.75 153.54,-125.89 152.61,-118.95"/>
</a>
</g>
</g>
<!-- Node6 -->
<g id="Node000006" class="node">
<title>Node6</title>
<g id="a_Node000006"><a xlink:href="classalexandria_1_1MultiPoleDevComputer.xhtml" target="_top" xlink:title=" ">
<polygon fill="white" stroke="#666666" points="335.38,-72.12 196.38,-72.12 196.38,-38.62 335.38,-38.62 335.38,-72.12"/>
<text xml:space="preserve" text-anchor="start" x="204.38" y="-58.62" font-family="Helvetica,sans-Serif" font-size="10.00">alexandria::MultiPoleDev</text>
<text xml:space="preserve" text-anchor="middle" x="265.88" y="-45.88" font-family="Helvetica,sans-Serif" font-size="10.00">Computer</text>
</a>
</g>
</g>
<!-- Node1&#45;&gt;Node6 -->
<g id="edge5_Node000001_Node000006" class="edge">
<title>Node1&#45;&gt;Node6</title>
<g id="a_edge5_Node000001_Node000006"><a xlink:title=" ">
<path fill="none" stroke="#63b8ff" d="M101.16,-117.16C122.01,-106.13 150.83,-91.71 177.25,-81.38 185.23,-78.25 193.74,-75.29 202.21,-72.56"/>
<polygon fill="#63b8ff" stroke="#63b8ff" points="99.53,-114.06 92.37,-121.87 102.83,-120.23 99.53,-114.06"/>
</a>
</g>
</g>
<!-- Node7 -->
<g id="Node000007" class="node">
<title>Node7</title>
<g id="a_Node000007"><a xlink:href="classalexandria_1_1PolarDevComputer.xhtml" target="_top" xlink:title=" ">
<polygon fill="white" stroke="#666666" points="348.88,-20.75 182.88,-20.75 182.88,0 348.88,0 348.88,-20.75"/>
<text xml:space="preserve" text-anchor="middle" x="265.88" y="-7.25" font-family="Helvetica,sans-Serif" font-size="10.00">alexandria::PolarDevComputer</text>
</a>
</g>
</g>
<!-- Node1&#45;&gt;Node7 -->
<g id="edge6_Node000001_Node000007" class="edge">
<title>Node1&#45;&gt;Node7</title>
<g id="a_edge6_Node000001_Node000007"><a xlink:title=" ">
<path fill="none" stroke="#63b8ff" d="M86.14,-113.36C104.56,-89.5 138.62,-50.26 177.25,-29.38 183.28,-26.12 189.82,-23.42 196.52,-21.18"/>
<polygon fill="#63b8ff" stroke="#63b8ff" points="83.36,-111.23 80.15,-121.33 88.96,-115.44 83.36,-111.23"/>
</a>
</g>
</g>
</g>
</svg>
