<?xml version="1.0" encoding="UTF-8" standalone="no"?>
<!DOCTYPE svg PUBLIC "-//W3C//DTD SVG 1.1//EN"
 "http://www.w3.org/Graphics/SVG/1.1/DTD/svg11.dtd">
<!-- Generated by graphviz version 14.1.2 (20260126.1125)
 -->
<!-- Title: src/act/coulombintegrals/coulomb_gaussian.h Pages: 1 -->
<svg width="152pt" height="168pt"
 viewBox="0.00 0.00 152.00 168.00" xmlns="http://www.w3.org/2000/svg" xmlns:xlink="http://www.w3.org/1999/xlink">
<g id="graph0" class="graph" transform="scale(1 1) rotate(0) translate(4 163.75)">
<title>src/act/coulombintegrals/coulomb_gaussian.h</title>
<!-- Node1 -->
<g id="Node000001" class="node">
<title>Node1</title>
<g id="a_Node000001"><a xlink:title="Provides routines for computing Coulomb integrals analytically. The Slater based code depends on the ...">
<polygon fill="#999999" stroke="#666666" points="139.75,-159.75 3.75,-159.75 3.75,-126.25 139.75,-126.25 139.75,-159.75"/>
<text xml:space="preserve" text-anchor="start" x="11.75" y="-146.25" font-family="Helvetica,sans-Serif" font-size="10.00">src/act/coulombintegrals</text>
<text xml:space="preserve" text-anchor="middle" x="71.75" y="-133.5" font-family="Helvetica,sans-Serif" font-size="10.00">/coulomb_gaussian.h</text>
</a>
</g>
</g>
<!-- Node2 -->
<g id="Node000002" class="node">
<title>Node2</title>
<g id="a_Node000002"><a xlink:href="gaussian__integrals_8h.xhtml" target="_top" xlink:title="Provides routines for computing Coulomb integrals analytically. The Slater based code depends on the ...">
<polygon fill="white" stroke="#666666" points="131.5,-90.25 12,-90.25 12,-56.75 131.5,-56.75 131.5,-90.25"/>
<text xml:space="preserve" text-anchor="start" x="20" y="-76.75" font-family="Helvetica,sans-Serif" font-size="10.00">act/coulombintegrals</text>
<text xml:space="preserve" text-anchor="middle" x="71.75" y="-64" font-family="Helvetica,sans-Serif" font-size="10.00">/gaussian_integrals.h</text>
</a>
</g>
</g>
<!-- Node1&#45;&gt;Node2 -->
<g id="edge1_Node000001_Node000002" class="edge">
<title>Node1&#45;&gt;Node2</title>
<g id="a_edge1_Node000001_Node000002"><a xlink:title=" ">
<path fill="none" stroke="#63b8ff" d="M71.75,-126C71.75,-118.77 71.75,-110.03 71.75,-101.81"/>
<polygon fill="#63b8ff" stroke="#63b8ff" points="75.25,-101.9 71.75,-91.9 68.25,-101.9 75.25,-101.9"/>
</a>
</g>
</g>
<!-- Node3 -->
<g id="Node000003" class="node">
<title>Node3</title>
<g id="a_Node000003"><a xlink:title=" ">
<polygon fill="#e0e0e0" stroke="#999999" points="143.5,-20.75 0,-20.75 0,0 143.5,0 143.5,-20.75"/>
<text xml:space="preserve" text-anchor="middle" x="71.75" y="-7.25" font-family="Helvetica,sans-Serif" font-size="10.00">gromacs/math/functions.h</text>
</a>
</g>
</g>
<!-- Node2&#45;&gt;Node3 -->
<g id="edge2_Node000002_Node000003" class="edge">
<title>Node2&#45;&gt;Node3</title>
<g id="a_edge2_Node000002_Node000003"><a xlink:title=" ">
<path fill="none" stroke="#63b8ff" d="M71.75,-56.44C71.75,-49.1 71.75,-40.32 71.75,-32.46"/>
<polygon fill="#63b8ff" stroke="#63b8ff" points="75.25,-32.73 71.75,-22.73 68.25,-32.73 75.25,-32.73"/>
</a>
</g>
</g>
</g>
</svg>
