<?xml version="1.0" encoding="UTF-8" standalone="no"?>
<!DOCTYPE svg PUBLIC "-//W3C//DTD SVG 1.1//EN"
 "http://www.w3.org/Graphics/SVG/1.1/DTD/svg11.dtd">
<!-- Generated by graphviz version 14.1.2 (20260126.1125)
 -->
<!-- Title: src/act/coulombintegrals/tests/coulombintegralstest.cpp Pages: 1 -->
<svg width="1122pt" height="168pt"
 viewBox="0.00 0.00 1122.00 168.00" xmlns="http://www.w3.org/2000/svg" xmlns:xlink="http://www.w3.org/1999/xlink">
<g id="graph0" class="graph" transform="scale(1 1) rotate(0) translate(4 163.75)">
<title>src/act/coulombintegrals/tests/coulombintegralstest.cpp</title>
<!-- Node1 -->
<g id="Node000001" class="node">
<title>Node1</title>
<g id="a_Node000001"><a xlink:title="Implements test of Coulomb routines.">
<polygon fill="#999999" stroke="#666666" points="505,-159.75 335.25,-159.75 335.25,-126.25 505,-126.25 505,-159.75"/>
<text xml:space="preserve" text-anchor="start" x="343.25" y="-146.25" font-family="Helvetica,sans-Serif" font-size="10.00">src/act/coulombintegrals</text>
<text xml:space="preserve" text-anchor="middle" x="420.12" y="-133.5" font-family="Helvetica,sans-Serif" font-size="10.00">/tests/coulombintegralstest.cpp</text>
</a>
</g>
</g>
<!-- Node2 -->
<g id="Node000002" class="node">
<title>Node2</title>
<g id="a_Node000002"><a xlink:title=" ">
<polygon fill="#e0e0e0" stroke="#999999" points="54.25,-83.88 0,-83.88 0,-63.12 54.25,-63.12 54.25,-83.88"/>
<text xml:space="preserve" text-anchor="middle" x="27.12" y="-70.38" font-family="Helvetica,sans-Serif" font-size="10.00">config.h</text>
</a>
</g>
</g>
<!-- Node1&#45;&gt;Node2 -->
<g id="edge1_Node000001_Node000002" class="edge">
<title>Node1&#45;&gt;Node2</title>
<g id="a_edge1_Node000001_Node000002"><a xlink:title=" ">
<path fill="none" stroke="#63b8ff" d="M335.11,-136.13C261.92,-129.56 154.06,-116.22 63.12,-90.25 61.28,-89.72 59.4,-89.12 57.52,-88.46"/>
<polygon fill="#63b8ff" stroke="#63b8ff" points="58.95,-85.27 48.36,-84.86 56.39,-91.78 58.95,-85.27"/>
</a>
</g>
</g>
<!-- Node3 -->
<g id="Node000003" class="node">
<title>Node3</title>
<g id="a_Node000003"><a xlink:title=" ">
<polygon fill="#e0e0e0" stroke="#999999" points="122.38,-83.88 71.88,-83.88 71.88,-63.12 122.38,-63.12 122.38,-83.88"/>
<text xml:space="preserve" text-anchor="middle" x="97.12" y="-70.38" font-family="Helvetica,sans-Serif" font-size="10.00">math.h</text>
</a>
</g>
</g>
<!-- Node1&#45;&gt;Node3 -->
<g id="edge2_Node000001_Node000003" class="edge">
<title>Node1&#45;&gt;Node3</title>
<g id="a_edge2_Node000001_Node000003"><a xlink:title=" ">
<path fill="none" stroke="#63b8ff" d="M334.97,-132.59C276.66,-124.74 198.09,-111.37 131.12,-90.25 129.54,-89.75 127.92,-89.19 126.31,-88.59"/>
<polygon fill="#63b8ff" stroke="#63b8ff" points="127.82,-85.43 117.24,-84.8 125.12,-91.88 127.82,-85.43"/>
</a>
</g>
</g>
<!-- Node4 -->
<g id="Node000004" class="node">
<title>Node4</title>
<g id="a_Node000004"><a xlink:title=" ">
<polygon fill="#e0e0e0" stroke="#999999" points="178,-83.88 140.25,-83.88 140.25,-63.12 178,-63.12 178,-83.88"/>
<text xml:space="preserve" text-anchor="middle" x="159.12" y="-70.38" font-family="Helvetica,sans-Serif" font-size="10.00">map</text>
</a>
</g>
</g>
<!-- Node1&#45;&gt;Node4 -->
<g id="edge3_Node000001_Node000004" class="edge">
<title>Node1&#45;&gt;Node4</title>
<g id="a_edge3_Node000001_Node000004"><a xlink:title=" ">
<path fill="none" stroke="#63b8ff" d="M334.8,-129.26C289.92,-121.02 234.53,-108.39 187.12,-90.25 186.34,-89.95 185.56,-89.63 184.77,-89.3"/>
<polygon fill="#63b8ff" stroke="#63b8ff" points="186.59,-86.3 176.08,-85.01 183.49,-92.57 186.59,-86.3"/>
</a>
</g>
</g>
<!-- Node5 -->
<g id="Node000005" class="node">
<title>Node5</title>
<g id="a_Node000005"><a xlink:title=" ">
<polygon fill="#e0e0e0" stroke="#999999" points="273.88,-83.88 196.38,-83.88 196.38,-63.12 273.88,-63.12 273.88,-83.88"/>
<text xml:space="preserve" text-anchor="middle" x="235.12" y="-70.38" font-family="Helvetica,sans-Serif" font-size="10.00">gtest/gtest.h</text>
</a>
</g>
</g>
<!-- Node1&#45;&gt;Node5 -->
<g id="edge4_Node000001_Node000005" class="edge">
<title>Node1&#45;&gt;Node5</title>
<g id="a_edge4_Node000001_Node000005"><a xlink:title=" ">
<path fill="none" stroke="#63b8ff" d="M375.81,-125.83C344.44,-114.38 302.8,-99.19 272.98,-88.31"/>
<polygon fill="#63b8ff" stroke="#63b8ff" points="274.19,-85.03 263.6,-84.89 271.79,-91.6 274.19,-85.03"/>
</a>
</g>
</g>
<!-- Node6 -->
<g id="Node000006" class="node">
<title>Node6</title>
<g id="a_Node000006"><a xlink:href="gaussian__integrals_8h.xhtml" target="_top" xlink:title="Provides routines for computing Coulomb integrals analytically. The Slater based code depends on the ...">
<polygon fill="white" stroke="#666666" points="411.88,-90.25 292.38,-90.25 292.38,-56.75 411.88,-56.75 411.88,-90.25"/>
<text xml:space="preserve" text-anchor="start" x="300.38" y="-76.75" font-family="Helvetica,sans-Serif" font-size="10.00">act/coulombintegrals</text>
<text xml:space="preserve" text-anchor="middle" x="352.12" y="-64" font-family="Helvetica,sans-Serif" font-size="10.00">/gaussian_integrals.h</text>
</a>
</g>
</g>
<!-- Node1&#45;&gt;Node6 -->
<g id="edge5_Node000001_Node000006" class="edge">
<title>Node1&#45;&gt;Node6</title>
<g id="a_edge5_Node000001_Node000006"><a xlink:title=" ">
<path fill="none" stroke="#63b8ff" d="M404.01,-126C395.71,-117.77 385.42,-107.55 376.2,-98.4"/>
<polygon fill="#63b8ff" stroke="#63b8ff" points="378.76,-96.01 369.2,-91.45 373.83,-100.98 378.76,-96.01"/>
</a>
</g>
</g>
<!-- Node8 -->
<g id="Node000008" class="node">
<title>Node8</title>
<g id="a_Node000008"><a xlink:href="slater__integrals_8h.xhtml" target="_top" xlink:title="Provides routines for computing Coulomb integrals analytically. The Slater based code depends on the ...">
<polygon fill="white" stroke="#666666" points="548.5,-90.25 429.75,-90.25 429.75,-56.75 548.5,-56.75 548.5,-90.25"/>
<text xml:space="preserve" text-anchor="start" x="437.75" y="-76.75" font-family="Helvetica,sans-Serif" font-size="10.00">act/coulombintegrals</text>
<text xml:space="preserve" text-anchor="middle" x="489.12" y="-64" font-family="Helvetica,sans-Serif" font-size="10.00">/slater_integrals.h</text>
</a>
</g>
</g>
<!-- Node1&#45;&gt;Node8 -->
<g id="edge7_Node000001_Node000008" class="edge">
<title>Node1&#45;&gt;Node8</title>
<g id="a_edge7_Node000001_Node000008"><a xlink:title=" ">
<path fill="none" stroke="#63b8ff" d="M436.48,-126C444.9,-117.77 455.34,-107.55 464.69,-98.4"/>
<polygon fill="#63b8ff" stroke="#63b8ff" points="467.11,-100.94 471.81,-91.44 462.21,-95.93 467.11,-100.94"/>
</a>
</g>
</g>
<!-- Node9 -->
<g id="Node000009" class="node">
<title>Node9</title>
<g id="a_Node000009"><a xlink:title=" ">
<polygon fill="#e0e0e0" stroke="#999999" points="691.88,-83.88 566.38,-83.88 566.38,-63.12 691.88,-63.12 691.88,-83.88"/>
<text xml:space="preserve" text-anchor="middle" x="629.12" y="-70.38" font-family="Helvetica,sans-Serif" font-size="10.00">testutils/cmdlinetest.h</text>
</a>
</g>
</g>
<!-- Node1&#45;&gt;Node9 -->
<g id="edge8_Node000001_Node000009" class="edge">
<title>Node1&#45;&gt;Node9</title>
<g id="a_edge8_Node000001_Node000009"><a xlink:title=" ">
<path fill="none" stroke="#63b8ff" d="M470.19,-125.83C506.1,-114.23 553.91,-98.79 587.69,-87.88"/>
<polygon fill="#63b8ff" stroke="#63b8ff" points="588.69,-91.24 597.13,-84.83 586.53,-84.58 588.69,-91.24"/>
</a>
</g>
</g>
<!-- Node10 -->
<g id="Node000010" class="node">
<title>Node10</title>
<g id="a_Node000010"><a xlink:title=" ">
<polygon fill="#e0e0e0" stroke="#999999" points="812.62,-83.88 709.62,-83.88 709.62,-63.12 812.62,-63.12 812.62,-83.88"/>
<text xml:space="preserve" text-anchor="middle" x="761.12" y="-70.38" font-family="Helvetica,sans-Serif" font-size="10.00">testutils/refdata.h</text>
</a>
</g>
</g>
<!-- Node1&#45;&gt;Node10 -->
<g id="edge9_Node000001_Node000010" class="edge">
<title>Node1&#45;&gt;Node10</title>
<g id="a_edge9_Node000001_Node000010"><a xlink:title=" ">
<path fill="none" stroke="#63b8ff" d="M505.31,-128.01C561.19,-118.42 635.76,-104.83 701.12,-90.25 705.44,-89.29 709.91,-88.23 714.37,-87.13"/>
<polygon fill="#63b8ff" stroke="#63b8ff" points="715.08,-90.57 723.91,-84.72 713.36,-83.78 715.08,-90.57"/>
</a>
</g>
</g>
<!-- Node11 -->
<g id="Node000011" class="node">
<title>Node11</title>
<g id="a_Node000011"><a xlink:title=" ">
<polygon fill="#e0e0e0" stroke="#999999" points="952,-83.88 830.25,-83.88 830.25,-63.12 952,-63.12 952,-83.88"/>
<text xml:space="preserve" text-anchor="middle" x="891.12" y="-70.38" font-family="Helvetica,sans-Serif" font-size="10.00">testutils/testasserts.h</text>
</a>
</g>
</g>
<!-- Node1&#45;&gt;Node11 -->
<g id="edge10_Node000001_Node000011" class="edge">
<title>Node1&#45;&gt;Node11</title>
<g id="a_edge10_Node000001_Node000011"><a xlink:title=" ">
<path fill="none" stroke="#63b8ff" d="M505.19,-133.46C586.8,-124.69 713.36,-109.62 822.12,-90.25 828.02,-89.2 834.18,-87.98 840.27,-86.69"/>
<polygon fill="#63b8ff" stroke="#63b8ff" points="840.62,-90.2 849.64,-84.64 839.13,-83.36 840.62,-90.2"/>
</a>
</g>
</g>
<!-- Node12 -->
<g id="Node000012" class="node">
<title>Node12</title>
<g id="a_Node000012"><a xlink:title=" ">
<polygon fill="#e0e0e0" stroke="#999999" points="1114.25,-83.88 970,-83.88 970,-63.12 1114.25,-63.12 1114.25,-83.88"/>
<text xml:space="preserve" text-anchor="middle" x="1042.12" y="-70.38" font-family="Helvetica,sans-Serif" font-size="10.00">testutils/testfilemanager.h</text>
</a>
</g>
</g>
<!-- Node1&#45;&gt;Node12 -->
<g id="edge11_Node000001_Node000012" class="edge">
<title>Node1&#45;&gt;Node12</title>
<g id="a_edge11_Node000001_Node000012"><a xlink:title=" ">
<path fill="none" stroke="#63b8ff" d="M505.23,-136.42C612.06,-128.82 800.75,-113.46 961.12,-90.25 968.65,-89.16 976.54,-87.85 984.31,-86.45"/>
<polygon fill="#63b8ff" stroke="#63b8ff" points="984.89,-89.9 994.08,-84.63 983.61,-83.02 984.89,-89.9"/>
</a>
</g>
</g>
<!-- Node7 -->
<g id="Node000007" class="node">
<title>Node7</title>
<g id="a_Node000007"><a xlink:title=" ">
<polygon fill="#e0e0e0" stroke="#999999" points="423.88,-20.75 280.38,-20.75 280.38,0 423.88,0 423.88,-20.75"/>
<text xml:space="preserve" text-anchor="middle" x="352.12" y="-7.25" font-family="Helvetica,sans-Serif" font-size="10.00">gromacs/math/functions.h</text>
</a>
</g>
</g>
<!-- Node6&#45;&gt;Node7 -->
<g id="edge6_Node000006_Node000007" class="edge">
<title>Node6&#45;&gt;Node7</title>
<g id="a_edge6_Node000006_Node000007"><a xlink:title=" ">
<path fill="none" stroke="#63b8ff" d="M352.12,-56.44C352.12,-49.1 352.12,-40.32 352.12,-32.46"/>
<polygon fill="#63b8ff" stroke="#63b8ff" points="355.63,-32.73 352.13,-22.73 348.63,-32.73 355.63,-32.73"/>
</a>
</g>
</g>
</g>
</svg>
