<?xml version="1.0" encoding="UTF-8" standalone="no"?>
<!DOCTYPE svg PUBLIC "-//W3C//DTD SVG 1.1//EN"
 "http://www.w3.org/Graphics/SVG/1.1/DTD/svg11.dtd">
<!-- Generated by graphviz version 14.1.2 (20260126.1125)
 -->
<!-- Title: src/act/forces/tests/forcecomputerutilsTest.cpp Pages: 1 -->
<svg width="1042pt" height="98pt"
 viewBox="0.00 0.00 1042.00 98.00" xmlns="http://www.w3.org/2000/svg" xmlns:xlink="http://www.w3.org/1999/xlink">
<g id="graph0" class="graph" transform="scale(1 1) rotate(0) translate(4 94.25)">
<title>src/act/forces/tests/forcecomputerutilsTest.cpp</title>
<!-- Node1 -->
<g id="Node000001" class="node">
<title>Node1</title>
<g id="a_Node000001"><a xlink:title="Implements test of bonded force routines.">
<polygon fill="#999999" stroke="#666666" points="451.38,-90.25 300.38,-90.25 300.38,-56.75 451.38,-56.75 451.38,-90.25"/>
<text xml:space="preserve" text-anchor="start" x="308.38" y="-76.75" font-family="Helvetica,sans-Serif" font-size="10.00">src/act/forces/tests</text>
<text xml:space="preserve" text-anchor="middle" x="375.88" y="-64" font-family="Helvetica,sans-Serif" font-size="10.00">/forcecomputerutilsTest.cpp</text>
</a>
</g>
</g>
<!-- Node2 -->
<g id="Node000002" class="node">
<title>Node2</title>
<g id="a_Node000002"><a xlink:href="actpre_8h.xhtml" target="_top" xlink:title="Prerequisite header file for ACT build.">
<polygon fill="white" stroke="#666666" points="55.75,-20.75 0,-20.75 0,0 55.75,0 55.75,-20.75"/>
<text xml:space="preserve" text-anchor="middle" x="27.88" y="-7.25" font-family="Helvetica,sans-Serif" font-size="10.00">actpre.h</text>
</a>
</g>
</g>
<!-- Node1&#45;&gt;Node2 -->
<g id="edge1_Node000001_Node000002" class="edge">
<title>Node1&#45;&gt;Node2</title>
<g id="a_edge1_Node000001_Node000002"><a xlink:title=" ">
<path fill="none" stroke="#63b8ff" d="M300.13,-61.7C239.61,-52.66 152.39,-38.71 67.28,-21.12"/>
<polygon fill="#63b8ff" stroke="#63b8ff" points="68.09,-17.71 57.58,-19.09 66.66,-24.56 68.09,-17.71"/>
</a>
</g>
</g>
<!-- Node3 -->
<g id="Node000003" class="node">
<title>Node3</title>
<g id="a_Node000003"><a xlink:title=" ">
<polygon fill="#e0e0e0" stroke="#999999" points="120.25,-20.75 73.5,-20.75 73.5,0 120.25,0 120.25,-20.75"/>
<text xml:space="preserve" text-anchor="middle" x="96.88" y="-7.25" font-family="Helvetica,sans-Serif" font-size="10.00">cmath</text>
</a>
</g>
</g>
<!-- Node1&#45;&gt;Node3 -->
<g id="edge2_Node000001_Node000003" class="edge">
<title>Node1&#45;&gt;Node3</title>
<g id="a_edge2_Node000001_Node000003"><a xlink:title=" ">
<path fill="none" stroke="#63b8ff" d="M300.13,-58.23C253.85,-49.14 193.25,-36.58 131.68,-21.32"/>
<polygon fill="#63b8ff" stroke="#63b8ff" points="132.6,-17.95 122.05,-18.91 130.9,-24.74 132.6,-17.95"/>
</a>
</g>
</g>
<!-- Node4 -->
<g id="Node000004" class="node">
<title>Node4</title>
<g id="a_Node000004"><a xlink:title=" ">
<polygon fill="#e0e0e0" stroke="#999999" points="195.5,-20.75 138.25,-20.75 138.25,0 195.5,0 195.5,-20.75"/>
<text xml:space="preserve" text-anchor="middle" x="166.88" y="-7.25" font-family="Helvetica,sans-Serif" font-size="10.00">memory</text>
</a>
</g>
</g>
<!-- Node1&#45;&gt;Node4 -->
<g id="edge3_Node000001_Node000004" class="edge">
<title>Node1&#45;&gt;Node4</title>
<g id="a_edge3_Node000001_Node000004"><a xlink:title=" ">
<path fill="none" stroke="#63b8ff" d="M320.42,-56.28C284.61,-45.81 238.87,-32.43 206.66,-23.01"/>
<polygon fill="#63b8ff" stroke="#63b8ff" points="207.9,-19.73 197.32,-20.28 205.93,-26.45 207.9,-19.73"/>
</a>
</g>
</g>
<!-- Node5 -->
<g id="Node000005" class="node">
<title>Node5</title>
<g id="a_Node000005"><a xlink:title=" ">
<polygon fill="#e0e0e0" stroke="#999999" points="260.25,-20.75 213.5,-20.75 213.5,0 260.25,0 260.25,-20.75"/>
<text xml:space="preserve" text-anchor="middle" x="236.88" y="-7.25" font-family="Helvetica,sans-Serif" font-size="10.00">vector</text>
</a>
</g>
</g>
<!-- Node1&#45;&gt;Node5 -->
<g id="edge4_Node000001_Node000005" class="edge">
<title>Node1&#45;&gt;Node5</title>
<g id="a_edge4_Node000001_Node000005"><a xlink:title=" ">
<path fill="none" stroke="#63b8ff" d="M338.99,-56.28C317.35,-46.76 290.25,-34.85 269.4,-25.68"/>
<polygon fill="#63b8ff" stroke="#63b8ff" points="271.09,-22.6 260.52,-21.77 268.27,-29 271.09,-22.6"/>
</a>
</g>
</g>
<!-- Node6 -->
<g id="Node000006" class="node">
<title>Node6</title>
<g id="a_Node000006"><a xlink:title=" ">
<polygon fill="#e0e0e0" stroke="#999999" points="355.62,-20.75 278.12,-20.75 278.12,0 355.62,0 355.62,-20.75"/>
<text xml:space="preserve" text-anchor="middle" x="316.88" y="-7.25" font-family="Helvetica,sans-Serif" font-size="10.00">gtest/gtest.h</text>
</a>
</g>
</g>
<!-- Node1&#45;&gt;Node6 -->
<g id="edge5_Node000001_Node000006" class="edge">
<title>Node1&#45;&gt;Node6</title>
<g id="a_edge5_Node000001_Node000006"><a xlink:title=" ">
<path fill="none" stroke="#63b8ff" d="M360.37,-56.44C352.37,-48.14 342.57,-37.99 334.3,-29.43"/>
<polygon fill="#63b8ff" stroke="#63b8ff" points="336.89,-27.07 327.43,-22.31 331.85,-31.93 336.89,-27.07"/>
</a>
</g>
</g>
<!-- Node7 -->
<g id="Node000007" class="node">
<title>Node7</title>
<g id="a_Node000007"><a xlink:title=" ">
<polygon fill="#e0e0e0" stroke="#999999" points="496.12,-20.75 373.62,-20.75 373.62,0 496.12,0 496.12,-20.75"/>
<text xml:space="preserve" text-anchor="middle" x="434.88" y="-7.25" font-family="Helvetica,sans-Serif" font-size="10.00">gromacs/math/units.h</text>
</a>
</g>
</g>
<!-- Node1&#45;&gt;Node7 -->
<g id="edge6_Node000001_Node000007" class="edge">
<title>Node1&#45;&gt;Node7</title>
<g id="a_edge6_Node000001_Node000007"><a xlink:title=" ">
<path fill="none" stroke="#63b8ff" d="M391.38,-56.44C399.38,-48.14 409.18,-37.99 417.45,-29.43"/>
<polygon fill="#63b8ff" stroke="#63b8ff" points="419.9,-31.93 424.32,-22.31 414.86,-27.07 419.9,-31.93"/>
</a>
</g>
</g>
<!-- Node8 -->
<g id="Node000008" class="node">
<title>Node8</title>
<g id="a_Node000008"><a xlink:title=" ">
<polygon fill="#e0e0e0" stroke="#999999" points="629.75,-20.75 514,-20.75 514,0 629.75,0 629.75,-20.75"/>
<text xml:space="preserve" text-anchor="middle" x="571.88" y="-7.25" font-family="Helvetica,sans-Serif" font-size="10.00">gromacs/math/vec.h</text>
</a>
</g>
</g>
<!-- Node1&#45;&gt;Node8 -->
<g id="edge7_Node000001_Node000008" class="edge">
<title>Node1&#45;&gt;Node8</title>
<g id="a_edge7_Node000001_Node000008"><a xlink:title=" ">
<path fill="none" stroke="#63b8ff" d="M427.88,-56.28C459.66,-46.37 499.78,-33.86 529.6,-24.56"/>
<polygon fill="#63b8ff" stroke="#63b8ff" points="530.53,-27.93 539.04,-21.62 528.45,-21.25 530.53,-27.93"/>
</a>
</g>
</g>
<!-- Node9 -->
<g id="Node000009" class="node">
<title>Node9</title>
<g id="a_Node000009"><a xlink:title=" ">
<polygon fill="#e0e0e0" stroke="#999999" points="773.62,-20.75 648.12,-20.75 648.12,0 773.62,0 773.62,-20.75"/>
<text xml:space="preserve" text-anchor="middle" x="710.88" y="-7.25" font-family="Helvetica,sans-Serif" font-size="10.00">testutils/cmdlinetest.h</text>
</a>
</g>
</g>
<!-- Node1&#45;&gt;Node9 -->
<g id="edge8_Node000001_Node000009" class="edge">
<title>Node1&#45;&gt;Node9</title>
<g id="a_edge8_Node000001_Node000009"><a xlink:title=" ">
<path fill="none" stroke="#63b8ff" d="M451.47,-58.71C509.97,-48.03 590.12,-33.41 645.79,-23.25"/>
<polygon fill="#63b8ff" stroke="#63b8ff" points="646.23,-26.73 655.44,-21.49 644.97,-19.84 646.23,-26.73"/>
</a>
</g>
</g>
<!-- Node10 -->
<g id="Node000010" class="node">
<title>Node10</title>
<g id="a_Node000010"><a xlink:title=" ">
<polygon fill="#e0e0e0" stroke="#999999" points="894.38,-20.75 791.38,-20.75 791.38,0 894.38,0 894.38,-20.75"/>
<text xml:space="preserve" text-anchor="middle" x="842.88" y="-7.25" font-family="Helvetica,sans-Serif" font-size="10.00">testutils/refdata.h</text>
</a>
</g>
</g>
<!-- Node1&#45;&gt;Node10 -->
<g id="edge9_Node000001_Node000010" class="edge">
<title>Node1&#45;&gt;Node10</title>
<g id="a_edge9_Node000001_Node000010"><a xlink:title=" ">
<path fill="none" stroke="#63b8ff" d="M451.72,-63.51C531.05,-53.96 659.5,-38.08 779.93,-21.14"/>
<polygon fill="#63b8ff" stroke="#63b8ff" points="780.27,-24.62 789.68,-19.76 779.29,-17.69 780.27,-24.62"/>
</a>
</g>
</g>
<!-- Node11 -->
<g id="Node000011" class="node">
<title>Node11</title>
<g id="a_Node000011"><a xlink:title=" ">
<polygon fill="#e0e0e0" stroke="#999999" points="1033.75,-20.75 912,-20.75 912,0 1033.75,0 1033.75,-20.75"/>
<text xml:space="preserve" text-anchor="middle" x="972.88" y="-7.25" font-family="Helvetica,sans-Serif" font-size="10.00">testutils/testasserts.h</text>
</a>
</g>
</g>
<!-- Node1&#45;&gt;Node11 -->
<g id="edge10_Node000001_Node000011" class="edge">
<title>Node1&#45;&gt;Node11</title>
<g id="a_edge10_Node000001_Node000011"><a xlink:title=" ">
<path fill="none" stroke="#63b8ff" d="M451.6,-65.97C551.91,-57.13 734.65,-40.32 900.18,-21.15"/>
<polygon fill="#63b8ff" stroke="#63b8ff" points="900.53,-24.63 910.06,-20 899.73,-17.68 900.53,-24.63"/>
</a>
</g>
</g>
</g>
</svg>
