<?xml version="1.0" encoding="UTF-8" standalone="no"?>
<!DOCTYPE svg PUBLIC "-//W3C//DTD SVG 1.1//EN"
 "http://www.w3.org/Graphics/SVG/1.1/DTD/svg11.dtd">
<!-- Generated by graphviz version 14.1.2 (20260126.1125)
 -->
<!-- Title: src/act/alexandria/tests/forcecomputerTest.cpp Pages: 1 -->
<svg width="886pt" height="98pt"
 viewBox="0.00 0.00 886.00 98.00" xmlns="http://www.w3.org/2000/svg" xmlns:xlink="http://www.w3.org/1999/xlink">
<g id="graph0" class="graph" transform="scale(1 1) rotate(0) translate(4 94.25)">
<title>src/act/alexandria/tests/forcecomputerTest.cpp</title>
<!-- Node1 -->
<g id="Node000001" class="node">
<title>Node1</title>
<g id="a_Node000001"><a xlink:title="Implements test of bonded force routines.">
<polygon fill="#999999" stroke="#666666" points="395.38,-90.25 238.38,-90.25 238.38,-56.75 395.38,-56.75 395.38,-90.25"/>
<text xml:space="preserve" text-anchor="start" x="246.38" y="-76.75" font-family="Helvetica,sans-Serif" font-size="10.00">src/act/alexandria</text>
<text xml:space="preserve" text-anchor="middle" x="316.88" y="-64" font-family="Helvetica,sans-Serif" font-size="10.00">/tests/forcecomputerTest.cpp</text>
</a>
</g>
</g>
<!-- Node2 -->
<g id="Node000002" class="node">
<title>Node2</title>
<g id="a_Node000002"><a xlink:href="actpre_8h.xhtml" target="_top" xlink:title="Prerequisite header file for ACT build.">
<polygon fill="white" stroke="#666666" points="55.75,-20.75 0,-20.75 0,0 55.75,0 55.75,-20.75"/>
<text xml:space="preserve" text-anchor="middle" x="27.88" y="-7.25" font-family="Helvetica,sans-Serif" font-size="10.00">actpre.h</text>
</a>
</g>
</g>
<!-- Node1&#45;&gt;Node2 -->
<g id="edge1_Node000001_Node000002" class="edge">
<title>Node1&#45;&gt;Node2</title>
<g id="a_edge1_Node000001_Node000002"><a xlink:title=" ">
<path fill="none" stroke="#63b8ff" d="M238.07,-57.28C191.01,-47.96 129.8,-35.46 67.03,-21.17"/>
<polygon fill="#63b8ff" stroke="#63b8ff" points="68.13,-17.83 57.6,-19.01 66.57,-24.66 68.13,-17.83"/>
</a>
</g>
</g>
<!-- Node3 -->
<g id="Node000003" class="node">
<title>Node3</title>
<g id="a_Node000003"><a xlink:title=" ">
<polygon fill="#e0e0e0" stroke="#999999" points="120.25,-20.75 73.5,-20.75 73.5,0 120.25,0 120.25,-20.75"/>
<text xml:space="preserve" text-anchor="middle" x="96.88" y="-7.25" font-family="Helvetica,sans-Serif" font-size="10.00">cmath</text>
</a>
</g>
</g>
<!-- Node1&#45;&gt;Node3 -->
<g id="edge2_Node000001_Node000003" class="edge">
<title>Node1&#45;&gt;Node3</title>
<g id="a_edge2_Node000001_Node000003"><a xlink:title=" ">
<path fill="none" stroke="#63b8ff" d="M257.11,-56.32C222.8,-46.97 178.64,-34.82 131.66,-21.51"/>
<polygon fill="#63b8ff" stroke="#63b8ff" points="132.66,-18.16 122.08,-18.79 130.75,-24.89 132.66,-18.16"/>
</a>
</g>
</g>
<!-- Node4 -->
<g id="Node000004" class="node">
<title>Node4</title>
<g id="a_Node000004"><a xlink:title=" ">
<polygon fill="#e0e0e0" stroke="#999999" points="195.5,-20.75 138.25,-20.75 138.25,0 195.5,0 195.5,-20.75"/>
<text xml:space="preserve" text-anchor="middle" x="166.88" y="-7.25" font-family="Helvetica,sans-Serif" font-size="10.00">memory</text>
</a>
</g>
</g>
<!-- Node1&#45;&gt;Node4 -->
<g id="edge3_Node000001_Node000004" class="edge">
<title>Node1&#45;&gt;Node4</title>
<g id="a_edge3_Node000001_Node000004"><a xlink:title=" ">
<path fill="none" stroke="#63b8ff" d="M277.07,-56.28C253.5,-46.68 223.93,-34.63 201.36,-25.43"/>
<polygon fill="#63b8ff" stroke="#63b8ff" points="202.88,-22.27 192.3,-21.74 200.24,-28.75 202.88,-22.27"/>
</a>
</g>
</g>
<!-- Node5 -->
<g id="Node000005" class="node">
<title>Node5</title>
<g id="a_Node000005"><a xlink:title=" ">
<polygon fill="#e0e0e0" stroke="#999999" points="290.62,-20.75 213.12,-20.75 213.12,0 290.62,0 290.62,-20.75"/>
<text xml:space="preserve" text-anchor="middle" x="251.88" y="-7.25" font-family="Helvetica,sans-Serif" font-size="10.00">gtest/gtest.h</text>
</a>
</g>
</g>
<!-- Node1&#45;&gt;Node5 -->
<g id="edge4_Node000001_Node000005" class="edge">
<title>Node1&#45;&gt;Node5</title>
<g id="a_edge4_Node000001_Node000005"><a xlink:title=" ">
<path fill="none" stroke="#63b8ff" d="M299.8,-56.44C290.79,-47.97 279.72,-37.56 270.5,-28.89"/>
<polygon fill="#63b8ff" stroke="#63b8ff" points="273.13,-26.55 263.44,-22.25 268.33,-31.65 273.13,-26.55"/>
</a>
</g>
</g>
<!-- Node6 -->
<g id="Node000006" class="node">
<title>Node6</title>
<g id="a_Node000006"><a xlink:title=" ">
<polygon fill="#e0e0e0" stroke="#999999" points="455.12,-20.75 308.62,-20.75 308.62,0 455.12,0 455.12,-20.75"/>
<text xml:space="preserve" text-anchor="middle" x="381.88" y="-7.25" font-family="Helvetica,sans-Serif" font-size="10.00">gromacs/utility/fatalerror.h</text>
</a>
</g>
</g>
<!-- Node1&#45;&gt;Node6 -->
<g id="edge5_Node000001_Node000006" class="edge">
<title>Node1&#45;&gt;Node6</title>
<g id="a_edge5_Node000001_Node000006"><a xlink:title=" ">
<path fill="none" stroke="#63b8ff" d="M333.95,-56.44C342.96,-47.97 354.03,-37.56 363.25,-28.89"/>
<polygon fill="#63b8ff" stroke="#63b8ff" points="365.42,-31.65 370.31,-22.25 360.62,-26.55 365.42,-31.65"/>
</a>
</g>
</g>
<!-- Node7 -->
<g id="Node000007" class="node">
<title>Node7</title>
<g id="a_Node000007"><a xlink:title=" ">
<polygon fill="#e0e0e0" stroke="#999999" points="576.38,-20.75 473.38,-20.75 473.38,0 576.38,0 576.38,-20.75"/>
<text xml:space="preserve" text-anchor="middle" x="524.88" y="-7.25" font-family="Helvetica,sans-Serif" font-size="10.00">testutils/refdata.h</text>
</a>
</g>
</g>
<!-- Node1&#45;&gt;Node7 -->
<g id="edge6_Node000001_Node000007" class="edge">
<title>Node1&#45;&gt;Node7</title>
<g id="a_edge6_Node000001_Node000007"><a xlink:title=" ">
<path fill="none" stroke="#63b8ff" d="M372.07,-56.28C406.09,-46.28 449.12,-33.64 480.84,-24.31"/>
<polygon fill="#63b8ff" stroke="#63b8ff" points="481.5,-27.77 490.11,-21.59 479.53,-21.05 481.5,-27.77"/>
</a>
</g>
</g>
<!-- Node8 -->
<g id="Node000008" class="node">
<title>Node8</title>
<g id="a_Node000008"><a xlink:title=" ">
<polygon fill="#e0e0e0" stroke="#999999" points="715.75,-20.75 594,-20.75 594,0 715.75,0 715.75,-20.75"/>
<text xml:space="preserve" text-anchor="middle" x="654.88" y="-7.25" font-family="Helvetica,sans-Serif" font-size="10.00">testutils/testasserts.h</text>
</a>
</g>
</g>
<!-- Node1&#45;&gt;Node8 -->
<g id="edge7_Node000001_Node000008" class="edge">
<title>Node1&#45;&gt;Node8</title>
<g id="a_edge7_Node000001_Node000008"><a xlink:title=" ">
<path fill="none" stroke="#63b8ff" d="M395.69,-58.25C454.55,-47.6 534.04,-33.23 589.41,-23.21"/>
<polygon fill="#63b8ff" stroke="#63b8ff" points="589.79,-26.7 599.01,-21.48 588.54,-19.81 589.79,-26.7"/>
</a>
</g>
</g>
<!-- Node9 -->
<g id="Node000009" class="node">
<title>Node9</title>
<g id="a_Node000009"><a xlink:title=" ">
<polygon fill="#e0e0e0" stroke="#999999" points="878,-20.75 733.75,-20.75 733.75,0 878,0 878,-20.75"/>
<text xml:space="preserve" text-anchor="middle" x="805.88" y="-7.25" font-family="Helvetica,sans-Serif" font-size="10.00">testutils/testfilemanager.h</text>
</a>
</g>
</g>
<!-- Node1&#45;&gt;Node9 -->
<g id="edge8_Node000001_Node000009" class="edge">
<title>Node1&#45;&gt;Node9</title>
<g id="a_edge8_Node000001_Node000009"><a xlink:title=" ">
<path fill="none" stroke="#63b8ff" d="M395.71,-62.65C485.31,-51.45 630.94,-33.24 722.42,-21.81"/>
<polygon fill="#63b8ff" stroke="#63b8ff" points="722.58,-25.31 732.07,-20.6 721.71,-18.37 722.58,-25.31"/>
</a>
</g>
</g>
</g>
</svg>
