<?xml version="1.0" encoding="UTF-8" standalone="no"?>
<!DOCTYPE svg PUBLIC "-//W3C//DTD SVG 1.1//EN"
 "http://www.w3.org/Graphics/SVG/1.1/DTD/svg11.dtd">
<!-- Generated by graphviz version 14.1.2 (20260126.1125)
 -->
<!-- Title: src/act/forces/tests/forceComputerImplementationTest.cpp Pages: 1 -->
<svg width="1042pt" height="111pt"
 viewBox="0.00 0.00 1042.00 111.00" xmlns="http://www.w3.org/2000/svg" xmlns:xlink="http://www.w3.org/1999/xlink">
<g id="graph0" class="graph" transform="scale(1 1) rotate(0) translate(4 107)">
<title>src/act/forces/tests/forceComputerImplementationTest.cpp</title>
<!-- Node1 -->
<g id="Node000001" class="node">
<title>Node1</title>
<g id="a_Node000001"><a xlink:title="Implements test of bonded force routines.">
<polygon fill="#999999" stroke="#666666" points="460.75,-103 291,-103 291,-56.75 460.75,-56.75 460.75,-103"/>
<text xml:space="preserve" text-anchor="start" x="299" y="-89.5" font-family="Helvetica,sans-Serif" font-size="10.00">src/act/forces/tests</text>
<text xml:space="preserve" text-anchor="start" x="299" y="-76.75" font-family="Helvetica,sans-Serif" font-size="10.00">/forceComputerImplementation</text>
<text xml:space="preserve" text-anchor="middle" x="375.88" y="-64" font-family="Helvetica,sans-Serif" font-size="10.00">Test.cpp</text>
</a>
</g>
</g>
<!-- Node2 -->
<g id="Node000002" class="node">
<title>Node2</title>
<g id="a_Node000002"><a xlink:href="actpre_8h.xhtml" target="_top" xlink:title="Prerequisite header file for ACT build.">
<polygon fill="white" stroke="#666666" points="55.75,-20.75 0,-20.75 0,0 55.75,0 55.75,-20.75"/>
<text xml:space="preserve" text-anchor="middle" x="27.88" y="-7.25" font-family="Helvetica,sans-Serif" font-size="10.00">actpre.h</text>
</a>
</g>
</g>
<!-- Node1&#45;&gt;Node2 -->
<g id="edge1_Node000001_Node000002" class="edge">
<title>Node1&#45;&gt;Node2</title>
<g id="a_edge1_Node000001_Node000002"><a xlink:title=" ">
<path fill="none" stroke="#63b8ff" d="M290.77,-64.47C230.79,-53.97 148.37,-38.84 67.06,-21.13"/>
<polygon fill="#63b8ff" stroke="#63b8ff" points="68.11,-17.78 57.59,-19.05 66.61,-24.61 68.11,-17.78"/>
</a>
</g>
</g>
<!-- Node3 -->
<g id="Node000003" class="node">
<title>Node3</title>
<g id="a_Node000003"><a xlink:title=" ">
<polygon fill="#e0e0e0" stroke="#999999" points="120.25,-20.75 73.5,-20.75 73.5,0 120.25,0 120.25,-20.75"/>
<text xml:space="preserve" text-anchor="middle" x="96.88" y="-7.25" font-family="Helvetica,sans-Serif" font-size="10.00">cmath</text>
</a>
</g>
</g>
<!-- Node1&#45;&gt;Node3 -->
<g id="edge2_Node000001_Node000003" class="edge">
<title>Node1&#45;&gt;Node3</title>
<g id="a_edge2_Node000001_Node000003"><a xlink:title=" ">
<path fill="none" stroke="#63b8ff" d="M290.72,-60.03C245.77,-49.8 189.49,-36.55 131.45,-21.34"/>
<polygon fill="#63b8ff" stroke="#63b8ff" points="132.63,-18.03 122.06,-18.87 130.84,-24.8 132.63,-18.03"/>
</a>
</g>
</g>
<!-- Node4 -->
<g id="Node000004" class="node">
<title>Node4</title>
<g id="a_Node000004"><a xlink:title=" ">
<polygon fill="#e0e0e0" stroke="#999999" points="195.5,-20.75 138.25,-20.75 138.25,0 195.5,0 195.5,-20.75"/>
<text xml:space="preserve" text-anchor="middle" x="166.88" y="-7.25" font-family="Helvetica,sans-Serif" font-size="10.00">memory</text>
</a>
</g>
</g>
<!-- Node1&#45;&gt;Node4 -->
<g id="edge3_Node000001_Node000004" class="edge">
<title>Node1&#45;&gt;Node4</title>
<g id="a_edge3_Node000001_Node000004"><a xlink:title=" ">
<path fill="none" stroke="#63b8ff" d="M305.99,-56.3C273.03,-45.66 234.9,-33.34 206.9,-24.3"/>
<polygon fill="#63b8ff" stroke="#63b8ff" points="207.97,-20.97 197.38,-21.23 205.82,-27.63 207.97,-20.97"/>
</a>
</g>
</g>
<!-- Node5 -->
<g id="Node000005" class="node">
<title>Node5</title>
<g id="a_Node000005"><a xlink:title=" ">
<polygon fill="#e0e0e0" stroke="#999999" points="260.25,-20.75 213.5,-20.75 213.5,0 260.25,0 260.25,-20.75"/>
<text xml:space="preserve" text-anchor="middle" x="236.88" y="-7.25" font-family="Helvetica,sans-Serif" font-size="10.00">vector</text>
</a>
</g>
</g>
<!-- Node1&#45;&gt;Node5 -->
<g id="edge4_Node000001_Node000005" class="edge">
<title>Node1&#45;&gt;Node5</title>
<g id="a_edge4_Node000001_Node000005"><a xlink:title=" ">
<path fill="none" stroke="#63b8ff" d="M329.59,-56.4C309.09,-46.44 285.54,-35.01 267.31,-26.15"/>
<polygon fill="#63b8ff" stroke="#63b8ff" points="268.87,-23.02 258.35,-21.8 265.81,-29.32 268.87,-23.02"/>
</a>
</g>
</g>
<!-- Node6 -->
<g id="Node000006" class="node">
<title>Node6</title>
<g id="a_Node000006"><a xlink:title=" ">
<polygon fill="#e0e0e0" stroke="#999999" points="355.62,-20.75 278.12,-20.75 278.12,0 355.62,0 355.62,-20.75"/>
<text xml:space="preserve" text-anchor="middle" x="316.88" y="-7.25" font-family="Helvetica,sans-Serif" font-size="10.00">gtest/gtest.h</text>
</a>
</g>
</g>
<!-- Node1&#45;&gt;Node6 -->
<g id="edge5_Node000001_Node000006" class="edge">
<title>Node1&#45;&gt;Node6</title>
<g id="a_edge5_Node000001_Node000006"><a xlink:title=" ">
<path fill="none" stroke="#63b8ff" d="M356.23,-56.4C348.63,-47.7 340.05,-37.88 332.84,-29.64"/>
<polygon fill="#63b8ff" stroke="#63b8ff" points="335.62,-27.51 326.41,-22.28 330.35,-32.11 335.62,-27.51"/>
</a>
</g>
</g>
<!-- Node7 -->
<g id="Node000007" class="node">
<title>Node7</title>
<g id="a_Node000007"><a xlink:title=" ">
<polygon fill="#e0e0e0" stroke="#999999" points="496.12,-20.75 373.62,-20.75 373.62,0 496.12,0 496.12,-20.75"/>
<text xml:space="preserve" text-anchor="middle" x="434.88" y="-7.25" font-family="Helvetica,sans-Serif" font-size="10.00">gromacs/math/units.h</text>
</a>
</g>
</g>
<!-- Node1&#45;&gt;Node7 -->
<g id="edge6_Node000001_Node000007" class="edge">
<title>Node1&#45;&gt;Node7</title>
<g id="a_edge6_Node000001_Node000007"><a xlink:title=" ">
<path fill="none" stroke="#63b8ff" d="M395.52,-56.4C403.12,-47.7 411.7,-37.88 418.91,-29.64"/>
<polygon fill="#63b8ff" stroke="#63b8ff" points="421.4,-32.11 425.34,-22.28 416.13,-27.51 421.4,-32.11"/>
</a>
</g>
</g>
<!-- Node8 -->
<g id="Node000008" class="node">
<title>Node8</title>
<g id="a_Node000008"><a xlink:title=" ">
<polygon fill="#e0e0e0" stroke="#999999" points="629.75,-20.75 514,-20.75 514,0 629.75,0 629.75,-20.75"/>
<text xml:space="preserve" text-anchor="middle" x="571.88" y="-7.25" font-family="Helvetica,sans-Serif" font-size="10.00">gromacs/math/vec.h</text>
</a>
</g>
</g>
<!-- Node1&#45;&gt;Node8 -->
<g id="edge7_Node000001_Node000008" class="edge">
<title>Node1&#45;&gt;Node8</title>
<g id="a_edge7_Node000001_Node000008"><a xlink:title=" ">
<path fill="none" stroke="#63b8ff" d="M441.41,-56.3C471.7,-45.88 506.64,-33.84 532.74,-24.85"/>
<polygon fill="#63b8ff" stroke="#63b8ff" points="533.6,-28.26 541.91,-21.69 531.32,-21.64 533.6,-28.26"/>
</a>
</g>
</g>
<!-- Node9 -->
<g id="Node000009" class="node">
<title>Node9</title>
<g id="a_Node000009"><a xlink:title=" ">
<polygon fill="#e0e0e0" stroke="#999999" points="773.62,-20.75 648.12,-20.75 648.12,0 773.62,0 773.62,-20.75"/>
<text xml:space="preserve" text-anchor="middle" x="710.88" y="-7.25" font-family="Helvetica,sans-Serif" font-size="10.00">testutils/cmdlinetest.h</text>
</a>
</g>
</g>
<!-- Node1&#45;&gt;Node9 -->
<g id="edge8_Node000001_Node000009" class="edge">
<title>Node1&#45;&gt;Node9</title>
<g id="a_edge8_Node000001_Node000009"><a xlink:title=" ">
<path fill="none" stroke="#63b8ff" d="M460.84,-61.75C520.26,-49.78 598.14,-34.09 651.09,-23.42"/>
<polygon fill="#63b8ff" stroke="#63b8ff" points="651.73,-26.86 660.84,-21.46 650.35,-20 651.73,-26.86"/>
</a>
</g>
</g>
<!-- Node10 -->
<g id="Node000010" class="node">
<title>Node10</title>
<g id="a_Node000010"><a xlink:title=" ">
<polygon fill="#e0e0e0" stroke="#999999" points="894.38,-20.75 791.38,-20.75 791.38,0 894.38,0 894.38,-20.75"/>
<text xml:space="preserve" text-anchor="middle" x="842.88" y="-7.25" font-family="Helvetica,sans-Serif" font-size="10.00">testutils/refdata.h</text>
</a>
</g>
</g>
<!-- Node1&#45;&gt;Node10 -->
<g id="edge9_Node000001_Node000010" class="edge">
<title>Node1&#45;&gt;Node10</title>
<g id="a_edge9_Node000001_Node000010"><a xlink:title=" ">
<path fill="none" stroke="#63b8ff" d="M460.89,-67.07C540.69,-55.9 663.71,-38.5 779.95,-21.17"/>
<polygon fill="#63b8ff" stroke="#63b8ff" points="780.3,-24.66 789.67,-19.72 779.27,-17.74 780.3,-24.66"/>
</a>
</g>
</g>
<!-- Node11 -->
<g id="Node000011" class="node">
<title>Node11</title>
<g id="a_Node000011"><a xlink:title=" ">
<polygon fill="#e0e0e0" stroke="#999999" points="1033.75,-20.75 912,-20.75 912,0 1033.75,0 1033.75,-20.75"/>
<text xml:space="preserve" text-anchor="middle" x="972.88" y="-7.25" font-family="Helvetica,sans-Serif" font-size="10.00">testutils/testasserts.h</text>
</a>
</g>
</g>
<!-- Node1&#45;&gt;Node11 -->
<g id="edge10_Node000001_Node000011" class="edge">
<title>Node1&#45;&gt;Node11</title>
<g id="a_edge10_Node000001_Node000011"><a xlink:title=" ">
<path fill="none" stroke="#63b8ff" d="M461,-70.18C563.08,-59.59 739.66,-40.81 900.5,-21.14"/>
<polygon fill="#63b8ff" stroke="#63b8ff" points="900.56,-24.66 910.06,-19.97 899.71,-17.72 900.56,-24.66"/>
</a>
</g>
</g>
</g>
</svg>
