<?xml version="1.0" encoding="UTF-8" standalone="no"?>
<!DOCTYPE svg PUBLIC "-//W3C//DTD SVG 1.1//EN"
 "http://www.w3.org/Graphics/SVG/1.1/DTD/svg11.dtd">
<!-- Generated by graphviz version 14.1.2 (20260126.1125)
 -->
<!-- Title: Code related to ACT in general Pages: 1 -->
<svg width="338pt" height="72pt"
 viewBox="0.00 0.00 338.00 72.00" xmlns="http://www.w3.org/2000/svg" xmlns:xlink="http://www.w3.org/1999/xlink">
<g id="graph0" class="graph" transform="scale(1 1) rotate(0) translate(4 68.31)">
<title>Code related to ACT in general</title>
<!-- Node2 -->
<g id="Node000002" class="node">
<title>Node2</title>
<g id="a_Node000002"><a xlink:href="group__group__publicapi.xhtml" target="_top" xlink:title="Classes and other symbols that are publicly accessible from user code.">
<polygon fill="white" stroke="#666666" points="329.75,-45.19 265.75,-45.19 265.75,-24.44 329.75,-24.44 329.75,-45.19"/>
<text xml:space="preserve" text-anchor="middle" x="297.75" y="-31.69" font-family="Helvetica,sans-Serif" font-size="10.00">Public API</text>
</a>
</g>
</g>
<!-- Node1 -->
<g id="Node000001" class="node">
<title>Node1</title>
<g id="a_Node000001"><a xlink:title="Generic ACT module.">
<polygon fill="#999999" stroke="#666666" points="113.5,-51.57 0,-51.57 0,-18.07 113.5,-18.07 113.5,-51.57"/>
<text xml:space="preserve" text-anchor="start" x="8" y="-38.07" font-family="Helvetica,sans-Serif" font-size="10.00">Code related to ACT</text>
<text xml:space="preserve" text-anchor="middle" x="56.75" y="-25.32" font-family="Helvetica,sans-Serif" font-size="10.00"> in general</text>
</a>
</g>
</g>
<!-- Node1&#45;&gt;Node2 -->
<g id="edge1" class="edge">
<title>Node1&#45;&gt;Node2</title>
<path fill="none" stroke="orange" stroke-dasharray="5,2" d="M113.72,-37.33C119.72,-37.53 125.73,-37.7 131.5,-37.82 183.16,-38.87 196.11,-39.4 247.75,-37.82 253.46,-37.64 259.53,-37.35 265.4,-37.02"/>
<text xml:space="preserve" text-anchor="middle" x="189.62" y="-54.81" font-family="Helvetica,sans-Serif" font-size="10.00">alexandria::ACTMol</text>
<text xml:space="preserve" text-anchor="middle" x="189.62" y="-42.06" font-family="Helvetica,sans-Serif" font-size="10.00">alexandria::ParticleType</text>
</g>
<!-- Node1&#45;&gt;Node2 -->
<g id="edge2" class="edge">
<title>Node1&#45;&gt;Node2</title>
<path fill="none" stroke="darkgreen" stroke-dasharray="5,2" d="M97.64,-17.66C108.43,-13.81 120.24,-10.28 131.5,-8.32 182.4,0.55 197.66,4.36 247.75,-8.32 259.94,-11.4 272.38,-18.19 281.68,-24.12"/>
<text xml:space="preserve" text-anchor="middle" x="189.62" y="-24.32" font-family="Helvetica,sans-Serif" font-size="10.00">gaussian_integrals.h</text>
<text xml:space="preserve" text-anchor="middle" x="189.62" y="-11.57" font-family="Helvetica,sans-Serif" font-size="10.00">slater_integrals.h</text>
</g>
</g>
</svg>
