<?xml version="1.0" encoding="UTF-8" standalone="no"?>
<!DOCTYPE svg PUBLIC "-//W3C//DTD SVG 1.1//EN"
 "http://www.w3.org/Graphics/SVG/1.1/DTD/svg11.dtd">
<!-- Generated by graphviz version 14.1.2 (20260126.1125)
 -->
<!-- Title: Graphical Class Hierarchy Pages: 1 -->
<svg width="382pt" height="197pt"
 viewBox="0.00 0.00 382.00 197.00" xmlns="http://www.w3.org/2000/svg" xmlns:xlink="http://www.w3.org/1999/xlink">
<g id="graph0" class="graph" transform="scale(1 1) rotate(0) translate(4 193.12)">
<title>Graphical Class Hierarchy</title>
<!-- Node0 -->
<g id="Node000000" class="node">
<title>Node0</title>
<g id="a_Node000000"><a xlink:href="classalexandria_1_1GenericProperty.xhtml" target="_top" xlink:title="Generic molecular property base clase.">
<polygon fill="white" stroke="#666666" points="152.5,-98.75 0,-98.75 0,-78 152.5,-78 152.5,-98.75"/>
<text xml:space="preserve" text-anchor="middle" x="76.25" y="-85.25" font-family="Helvetica,sans-Serif" font-size="10.00">alexandria::GenericProperty</text>
</a>
</g>
</g>
<!-- Node1 -->
<g id="Node000001" class="node">
<title>Node1</title>
<g id="a_Node000001"><a xlink:href="classalexandria_1_1ElectrostaticPotential.xhtml" target="_top" xlink:title="Contains the electrostatic potential in a coordinate close to a molecule.">
<polygon fill="white" stroke="#666666" points="348.5,-189.12 214,-189.12 214,-155.62 348.5,-155.62 348.5,-189.12"/>
<text xml:space="preserve" text-anchor="start" x="222" y="-175.62" font-family="Helvetica,sans-Serif" font-size="10.00">alexandria::Electrostatic</text>
<text xml:space="preserve" text-anchor="middle" x="281.25" y="-162.88" font-family="Helvetica,sans-Serif" font-size="10.00">Potential</text>
</a>
</g>
</g>
<!-- Node0&#45;&gt;Node1 -->
<g id="edge10_Node000000_Node000001" class="edge">
<title>Node0&#45;&gt;Node1</title>
<g id="a_edge10_Node000000_Node000001"><a xlink:title=" ">
<path fill="none" stroke="#63b8ff" d="M104.9,-104.82C126.97,-117.44 158.97,-134.64 188.5,-146.38 196.5,-149.56 205.04,-152.52 213.56,-155.22"/>
<polygon fill="#63b8ff" stroke="#63b8ff" points="106.93,-101.95 96.52,-99.97 103.42,-108.01 106.93,-101.95"/>
</a>
</g>
</g>
<!-- Node2 -->
<g id="Node000002" class="node">
<title>Node2</title>
<g id="a_Node000002"><a xlink:href="classalexandria_1_1Harmonics.xhtml" target="_top" xlink:title="Harmonic frequencies or intensities. Distinction between the two is through the MolPropObservable.">
<polygon fill="white" stroke="#666666" points="344.38,-137.75 218.12,-137.75 218.12,-117 344.38,-117 344.38,-137.75"/>
<text xml:space="preserve" text-anchor="middle" x="281.25" y="-124.25" font-family="Helvetica,sans-Serif" font-size="10.00">alexandria::Harmonics</text>
</a>
</g>
</g>
<!-- Node0&#45;&gt;Node2 -->
<g id="edge11_Node000000_Node000002" class="edge">
<title>Node0&#45;&gt;Node2</title>
<g id="a_edge11_Node000000_Node000002"><a xlink:title=" ">
<path fill="none" stroke="#63b8ff" d="M144.9,-101.37C170.45,-106.28 199.22,-111.81 223.65,-116.5"/>
<polygon fill="#63b8ff" stroke="#63b8ff" points="145.76,-97.97 135.28,-99.52 144.44,-104.85 145.76,-97.97"/>
</a>
</g>
</g>
<!-- Node3 -->
<g id="Node000003" class="node">
<title>Node3</title>
<g id="a_Node000003"><a xlink:href="classalexandria_1_1MolecularEnergy.xhtml" target="_top" xlink:title="Contains a molecular energy.">
<polygon fill="white" stroke="#666666" points="359,-98.75 203.5,-98.75 203.5,-78 359,-78 359,-98.75"/>
<text xml:space="preserve" text-anchor="middle" x="281.25" y="-85.25" font-family="Helvetica,sans-Serif" font-size="10.00">alexandria::MolecularEnergy</text>
</a>
</g>
</g>
<!-- Node0&#45;&gt;Node3 -->
<g id="edge12_Node000000_Node000003" class="edge">
<title>Node0&#45;&gt;Node3</title>
<g id="a_edge12_Node000000_Node000003"><a xlink:title=" ">
<path fill="none" stroke="#63b8ff" d="M164.15,-88.38C177.15,-88.38 190.47,-88.38 203.24,-88.38"/>
<polygon fill="#63b8ff" stroke="#63b8ff" points="164.35,-84.88 154.35,-88.38 164.35,-91.88 164.35,-84.88"/>
</a>
</g>
</g>
<!-- Node4 -->
<g id="Node000004" class="node">
<title>Node4</title>
<g id="a_Node000004"><a xlink:href="classalexandria_1_1MolecularMultipole.xhtml" target="_top" xlink:title="Elements of the electrostatic multipole.">
<polygon fill="white" stroke="#666666" points="365,-59.75 197.5,-59.75 197.5,-39 365,-39 365,-59.75"/>
<text xml:space="preserve" text-anchor="middle" x="281.25" y="-46.25" font-family="Helvetica,sans-Serif" font-size="10.00">alexandria::MolecularMultipole</text>
</a>
</g>
</g>
<!-- Node0&#45;&gt;Node4 -->
<g id="edge13_Node000000_Node000004" class="edge">
<title>Node0&#45;&gt;Node4</title>
<g id="a_edge13_Node000000_Node000004"><a xlink:title=" ">
<path fill="none" stroke="#63b8ff" d="M144.9,-75.38C170.45,-70.47 199.22,-64.94 223.65,-60.25"/>
<polygon fill="#63b8ff" stroke="#63b8ff" points="144.44,-71.9 135.28,-77.23 145.76,-78.78 144.44,-71.9"/>
</a>
</g>
</g>
<!-- Node5 -->
<g id="Node000005" class="node">
<title>Node5</title>
<g id="a_Node000005"><a xlink:href="classalexandria_1_1MolecularPolarizability.xhtml" target="_top" xlink:title="Contains the elements of the molecular polarizability tensor.">
<polygon fill="white" stroke="#666666" points="374,-20.75 188.5,-20.75 188.5,0 374,0 374,-20.75"/>
<text xml:space="preserve" text-anchor="middle" x="281.25" y="-7.25" font-family="Helvetica,sans-Serif" font-size="10.00">alexandria::MolecularPolarizability</text>
</a>
</g>
</g>
<!-- Node0&#45;&gt;Node5 -->
<g id="edge14_Node000000_Node000005" class="edge">
<title>Node0&#45;&gt;Node5</title>
<g id="a_edge14_Node000000_Node000005"><a xlink:title=" ">
<path fill="none" stroke="#63b8ff" d="M103.93,-71.88C125.91,-58.94 158.27,-41.33 188.5,-30.38 198.46,-26.77 209.28,-23.7 219.88,-21.13"/>
<polygon fill="#63b8ff" stroke="#63b8ff" points="102.4,-68.72 95.62,-76.86 105.99,-74.72 102.4,-68.72"/>
</a>
</g>
</g>
</g>
</svg>
