<?xml version="1.0" encoding="UTF-8" standalone="no"?>
<!DOCTYPE svg PUBLIC "-//W3C//DTD SVG 1.1//EN"
 "http://www.w3.org/Graphics/SVG/1.1/DTD/svg11.dtd">
<!-- Generated by graphviz version 14.1.2 (20260126.1125)
 -->
<!-- Title: Graphical Class Hierarchy Pages: 1 -->
<svg width="271pt" height="68pt"
 viewBox="0.00 0.00 271.00 68.00" xmlns="http://www.w3.org/2000/svg" xmlns:xlink="http://www.w3.org/1999/xlink">
<g id="graph0" class="graph" transform="scale(1 1) rotate(0) translate(4 63.75)">
<title>Graphical Class Hierarchy</title>
<!-- Node0 -->
<g id="Node000000" class="node">
<title>Node0</title>
<g id="a_Node000000"><a xlink:href="classga_1_1Terminator.xhtml" target="_top" xlink:title="Abstract class to check for evolution termination conditions.">
<polygon fill="white" stroke="#666666" points="86.5,-39.75 0,-39.75 0,-19 86.5,-19 86.5,-39.75"/>
<text xml:space="preserve" text-anchor="middle" x="43.25" y="-26.25" font-family="Helvetica,sans-Serif" font-size="10.00">ga::Terminator</text>
</a>
</g>
</g>
<!-- Node1 -->
<g id="Node000001" class="node">
<title>Node1</title>
<g id="a_Node000001"><a xlink:href="classga_1_1GenerationTerminator.xhtml" target="_top" xlink:title="Terminator which stops evolution after a given amount of generations.">
<polygon fill="white" stroke="#666666" points="263,-59.75 122.5,-59.75 122.5,-39 263,-39 263,-59.75"/>
<text xml:space="preserve" text-anchor="middle" x="192.75" y="-46.25" font-family="Helvetica,sans-Serif" font-size="10.00">ga::GenerationTerminator</text>
</a>
</g>
</g>
<!-- Node0&#45;&gt;Node1 -->
<g id="edge40_Node000000_Node000001" class="edge">
<title>Node0&#45;&gt;Node1</title>
<g id="a_edge40_Node000000_Node000001"><a xlink:title=" ">
<path fill="none" stroke="#63b8ff" d="M98.12,-36.68C105.97,-37.74 114.13,-38.85 122.23,-39.95"/>
<polygon fill="#63b8ff" stroke="#63b8ff" points="98.79,-33.24 88.41,-35.36 97.85,-40.18 98.79,-33.24"/>
</a>
</g>
</g>
<!-- Node2 -->
<g id="Node000002" class="node">
<title>Node2</title>
<g id="a_Node000002"><a xlink:href="classga_1_1TestGenTerminator.xhtml" target="_top" xlink:title="Terminator which stops evolution after the best test fitness has not improved in a given number of ge...">
<polygon fill="white" stroke="#666666" points="255.5,-20.75 130,-20.75 130,0 255.5,0 255.5,-20.75"/>
<text xml:space="preserve" text-anchor="middle" x="192.75" y="-7.25" font-family="Helvetica,sans-Serif" font-size="10.00">ga::TestGenTerminator</text>
</a>
</g>
</g>
<!-- Node0&#45;&gt;Node2 -->
<g id="edge41_Node000000_Node000002" class="edge">
<title>Node0&#45;&gt;Node2</title>
<g id="a_edge41_Node000000_Node000002"><a xlink:title=" ">
<path fill="none" stroke="#63b8ff" d="M98.2,-22.43C108.44,-21.11 119.24,-19.72 129.71,-18.37"/>
<polygon fill="#63b8ff" stroke="#63b8ff" points="97.89,-18.94 88.41,-23.69 98.78,-25.88 97.89,-18.94"/>
</a>
</g>
</g>
</g>
</svg>
