<?xml version="1.0" encoding="UTF-8" standalone="no"?>
<!DOCTYPE svg PUBLIC "-//W3C//DTD SVG 1.1//EN"
 "http://www.w3.org/Graphics/SVG/1.1/DTD/svg11.dtd">
<!-- Generated by graphviz version 14.1.2 (20260126.1125)
 -->
<!-- Title: Graphical Class Hierarchy Pages: 1 -->
<svg width="278pt" height="68pt"
 viewBox="0.00 0.00 278.00 68.00" xmlns="http://www.w3.org/2000/svg" xmlns:xlink="http://www.w3.org/1999/xlink">
<g id="graph0" class="graph" transform="scale(1 1) rotate(0) translate(4 63.75)">
<title>Graphical Class Hierarchy</title>
<!-- Node0 -->
<g id="Node000000" class="node">
<title>Node0</title>
<g id="a_Node000000"><a xlink:href="classga_1_1Penalizer.xhtml" target="_top" xlink:title="Penalizes a population.">
<polygon fill="white" stroke="#666666" points="79,-39.75 0,-39.75 0,-19 79,-19 79,-39.75"/>
<text xml:space="preserve" text-anchor="middle" x="39.5" y="-26.25" font-family="Helvetica,sans-Serif" font-size="10.00">ga::Penalizer</text>
</a>
</g>
</g>
<!-- Node1 -->
<g id="Node000001" class="node">
<title>Node1</title>
<g id="a_Node000001"><a xlink:href="classga_1_1CatastrophePenalizer.xhtml" target="_top" xlink:title="A catastrophe happens and a fraction of the population (at random) is randomized.">
<polygon fill="white" stroke="#666666" points="261.5,-59.75 123.25,-59.75 123.25,-39 261.5,-39 261.5,-59.75"/>
<text xml:space="preserve" text-anchor="middle" x="192.38" y="-46.25" font-family="Helvetica,sans-Serif" font-size="10.00">ga::CatastrophePenalizer</text>
</a>
</g>
</g>
<!-- Node0&#45;&gt;Node1 -->
<g id="edge32_Node000000_Node000001" class="edge">
<title>Node0&#45;&gt;Node1</title>
<g id="a_edge32_Node000000_Node000001"><a xlink:title=" ">
<path fill="none" stroke="#63b8ff" d="M90.64,-36.02C100.95,-37.39 111.97,-38.85 122.79,-40.28"/>
<polygon fill="#63b8ff" stroke="#63b8ff" points="91.23,-32.57 80.85,-34.72 90.31,-39.51 91.23,-32.57"/>
</a>
</g>
</g>
<!-- Node2 -->
<g id="Node000002" class="node">
<title>Node2</title>
<g id="a_Node000002"><a xlink:href="classga_1_1VolumeFractionPenalizer.xhtml" target="_top" xlink:title="Penalizer that punishes the population if its volume is not large enough.">
<polygon fill="white" stroke="#666666" points="269.75,-20.75 115,-20.75 115,0 269.75,0 269.75,-20.75"/>
<text xml:space="preserve" text-anchor="middle" x="192.38" y="-7.25" font-family="Helvetica,sans-Serif" font-size="10.00">ga::VolumeFractionPenalizer</text>
</a>
</g>
</g>
<!-- Node0&#45;&gt;Node2 -->
<g id="edge33_Node000000_Node000002" class="edge">
<title>Node0&#45;&gt;Node2</title>
<g id="a_edge33_Node000000_Node000002"><a xlink:title=" ">
<path fill="none" stroke="#63b8ff" d="M90.67,-23.06C98.35,-22.09 106.43,-21.07 114.54,-20.05"/>
<polygon fill="#63b8ff" stroke="#63b8ff" points="90.34,-19.57 80.86,-24.29 91.21,-26.52 90.34,-19.57"/>
</a>
</g>
</g>
</g>
</svg>
