<?xml version="1.0" encoding="UTF-8" standalone="no"?>
<!DOCTYPE svg PUBLIC "-//W3C//DTD SVG 1.1//EN"
 "http://www.w3.org/Graphics/SVG/1.1/DTD/svg11.dtd">
<!-- Generated by graphviz version 14.1.2 (20260126.1125)
 -->
<!-- Title: Graphical Class Hierarchy Pages: 1 -->
<svg width="360pt" height="107pt"
 viewBox="0.00 0.00 360.00 107.00" xmlns="http://www.w3.org/2000/svg" xmlns:xlink="http://www.w3.org/1999/xlink">
<g id="graph0" class="graph" transform="scale(1 1) rotate(0) translate(4 102.75)">
<title>Graphical Class Hierarchy</title>
<!-- Node0 -->
<g id="Node000000" class="node">
<title>Node0</title>
<g id="a_Node000000"><a xlink:href="classalexandria_1_1ConfigHandler.xhtml" target="_top" xlink:title=" ">
<polygon fill="white" stroke="#666666" points="142.75,-59.75 0,-59.75 0,-39 142.75,-39 142.75,-59.75"/>
<text xml:space="preserve" text-anchor="middle" x="71.38" y="-46.25" font-family="Helvetica,sans-Serif" font-size="10.00">alexandria::ConfigHandler</text>
</a>
</g>
</g>
<!-- Node1 -->
<g id="Node000001" class="node">
<title>Node1</title>
<g id="a_Node000001"><a xlink:href="classalexandria_1_1BayesConfigHandler.xhtml" target="_top" xlink:title=" ">
<polygon fill="white" stroke="#666666" points="351.5,-98.75 178.75,-98.75 178.75,-78 351.5,-78 351.5,-98.75"/>
<text xml:space="preserve" text-anchor="middle" x="265.12" y="-85.25" font-family="Helvetica,sans-Serif" font-size="10.00">alexandria::BayesConfigHandler</text>
</a>
</g>
</g>
<!-- Node0&#45;&gt;Node1 -->
<g id="edge1_Node000000_Node000001" class="edge">
<title>Node0&#45;&gt;Node1</title>
<g id="a_edge1_Node000000_Node000001"><a xlink:title=" ">
<path fill="none" stroke="#63b8ff" d="M136.93,-62.5C160.89,-67.38 187.8,-72.85 210.67,-77.5"/>
<polygon fill="#63b8ff" stroke="#63b8ff" points="137.77,-59.1 127.27,-60.54 136.37,-65.96 137.77,-59.1"/>
</a>
</g>
</g>
<!-- Node2 -->
<g id="Node000002" class="node">
<title>Node2</title>
<g id="a_Node000002"><a xlink:href="classalexandria_1_1GAConfigHandler.xhtml" target="_top" xlink:title=" ">
<polygon fill="white" stroke="#666666" points="343.62,-59.75 186.62,-59.75 186.62,-39 343.62,-39 343.62,-59.75"/>
<text xml:space="preserve" text-anchor="middle" x="265.12" y="-46.25" font-family="Helvetica,sans-Serif" font-size="10.00">alexandria::GAConfigHandler</text>
</a>
</g>
</g>
<!-- Node0&#45;&gt;Node2 -->
<g id="edge2_Node000000_Node000002" class="edge">
<title>Node0&#45;&gt;Node2</title>
<g id="a_edge2_Node000000_Node000002"><a xlink:title=" ">
<path fill="none" stroke="#63b8ff" d="M154.5,-49.38C165,-49.38 175.72,-49.38 186.14,-49.38"/>
<polygon fill="#63b8ff" stroke="#63b8ff" points="154.74,-45.88 144.74,-49.38 154.74,-52.88 154.74,-45.88"/>
</a>
</g>
</g>
<!-- Node3 -->
<g id="Node000003" class="node">
<title>Node3</title>
<g id="a_Node000003"><a xlink:href="classalexandria_1_1OptACM.xhtml" target="_top" xlink:title="FIXME: The class that does all the optimization work. This class inherits the MolGen class that holds...">
<polygon fill="white" stroke="#666666" points="321.88,-20.75 208.38,-20.75 208.38,0 321.88,0 321.88,-20.75"/>
<text xml:space="preserve" text-anchor="middle" x="265.12" y="-7.25" font-family="Helvetica,sans-Serif" font-size="10.00">alexandria::OptACM</text>
</a>
</g>
</g>
<!-- Node0&#45;&gt;Node3 -->
<g id="edge3_Node000000_Node000003" class="edge">
<title>Node0&#45;&gt;Node3</title>
<g id="a_edge3_Node000000_Node000003"><a xlink:title=" ">
<path fill="none" stroke="#63b8ff" d="M136.93,-36.25C160.89,-31.37 187.8,-25.9 210.67,-21.25"/>
<polygon fill="#63b8ff" stroke="#63b8ff" points="136.37,-32.79 127.27,-38.21 137.77,-39.65 136.37,-32.79"/>
</a>
</g>
</g>
</g>
</svg>
