<?xml version="1.0" encoding="UTF-8" standalone="no"?>
<!DOCTYPE svg PUBLIC "-//W3C//DTD SVG 1.1//EN"
 "http://www.w3.org/Graphics/SVG/1.1/DTD/svg11.dtd">
<!-- Generated by graphviz version 14.1.2 (20260126.1125)
 -->
<!-- Title: Graphical Class Hierarchy Pages: 1 -->
<svg width="348pt" height="119pt"
 viewBox="0.00 0.00 348.00 119.00" xmlns="http://www.w3.org/2000/svg" xmlns:xlink="http://www.w3.org/1999/xlink">
<g id="graph0" class="graph" transform="scale(1 1) rotate(0) translate(4 115.12)">
<title>Graphical Class Hierarchy</title>
<!-- Node0 -->
<g id="Node000000" class="node">
<title>Node0</title>
<g id="a_Node000000"><a xlink:href="classga_1_1ProbabilityComputer.xhtml" target="_top" xlink:title=" ">
<polygon fill="white" stroke="#666666" points="134.5,-59.75 0,-59.75 0,-39 134.5,-39 134.5,-59.75"/>
<text xml:space="preserve" text-anchor="middle" x="67.25" y="-46.25" font-family="Helvetica,sans-Serif" font-size="10.00">ga::ProbabilityComputer</text>
</a>
</g>
</g>
<!-- Node1 -->
<g id="Node000001" class="node">
<title>Node1</title>
<g id="a_Node000001"><a xlink:href="classga_1_1BoltzmannProbabilityComputer.xhtml" target="_top" xlink:title=" ">
<polygon fill="white" stroke="#666666" points="324.5,-111.12 185.5,-111.12 185.5,-77.62 324.5,-77.62 324.5,-111.12"/>
<text xml:space="preserve" text-anchor="start" x="193.5" y="-97.62" font-family="Helvetica,sans-Serif" font-size="10.00">ga::BoltzmannProbability</text>
<text xml:space="preserve" text-anchor="middle" x="255" y="-84.88" font-family="Helvetica,sans-Serif" font-size="10.00">Computer</text>
</a>
</g>
</g>
<!-- Node0&#45;&gt;Node1 -->
<g id="edge34_Node000000_Node000001" class="edge">
<title>Node0&#45;&gt;Node1</title>
<g id="a_edge34_Node000000_Node000001"><a xlink:title=" ">
<path fill="none" stroke="#63b8ff" d="M123.77,-62.83C143.07,-67.5 164.96,-72.8 185.2,-77.71"/>
<polygon fill="#63b8ff" stroke="#63b8ff" points="124.76,-59.46 114.21,-60.51 123.11,-66.27 124.76,-59.46"/>
</a>
</g>
</g>
<!-- Node2 -->
<g id="Node000002" class="node">
<title>Node2</title>
<g id="a_Node000002"><a xlink:href="classga_1_1FitnessProbabilityComputer.xhtml" target="_top" xlink:title=" ">
<polygon fill="white" stroke="#666666" points="339.5,-59.75 170.5,-59.75 170.5,-39 339.5,-39 339.5,-59.75"/>
<text xml:space="preserve" text-anchor="middle" x="255" y="-46.25" font-family="Helvetica,sans-Serif" font-size="10.00">ga::FitnessProbabilityComputer</text>
</a>
</g>
</g>
<!-- Node0&#45;&gt;Node2 -->
<g id="edge35_Node000000_Node000002" class="edge">
<title>Node0&#45;&gt;Node2</title>
<g id="a_edge35_Node000000_Node000002"><a xlink:title=" ">
<path fill="none" stroke="#63b8ff" d="M146.22,-49.38C154.11,-49.38 162.15,-49.38 170.11,-49.38"/>
<polygon fill="#63b8ff" stroke="#63b8ff" points="146.3,-45.88 136.3,-49.38 146.3,-52.88 146.3,-45.88"/>
</a>
</g>
</g>
<!-- Node3 -->
<g id="Node000003" class="node">
<title>Node3</title>
<g id="a_Node000003"><a xlink:href="classga_1_1RankProbabilityComputer.xhtml" target="_top" xlink:title=" ">
<polygon fill="white" stroke="#666666" points="334.62,-20.75 175.38,-20.75 175.38,0 334.62,0 334.62,-20.75"/>
<text xml:space="preserve" text-anchor="middle" x="255" y="-7.25" font-family="Helvetica,sans-Serif" font-size="10.00">ga::RankProbabilityComputer</text>
</a>
</g>
</g>
<!-- Node0&#45;&gt;Node3 -->
<g id="edge36_Node000000_Node000003" class="edge">
<title>Node0&#45;&gt;Node3</title>
<g id="a_edge36_Node000000_Node000003"><a xlink:title=" ">
<path fill="none" stroke="#63b8ff" d="M131.1,-36.18C154.24,-31.32 180.16,-25.88 202.21,-21.25"/>
<polygon fill="#63b8ff" stroke="#63b8ff" points="130.54,-32.72 121.47,-38.2 131.98,-39.57 130.54,-32.72"/>
</a>
</g>
</g>
</g>
</svg>
