<?xml version="1.0" encoding="UTF-8" standalone="no"?>
<!DOCTYPE svg PUBLIC "-//W3C//DTD SVG 1.1//EN"
 "http://www.w3.org/Graphics/SVG/1.1/DTD/svg11.dtd">
<!-- Generated by graphviz version 14.1.2 (20260126.1125)
 -->
<!-- Title: Graphical Class Hierarchy Pages: 1 -->
<svg width="265pt" height="68pt"
 viewBox="0.00 0.00 265.00 68.00" xmlns="http://www.w3.org/2000/svg" xmlns:xlink="http://www.w3.org/1999/xlink">
<g id="graph0" class="graph" transform="scale(1 1) rotate(0) translate(4 63.75)">
<title>Graphical Class Hierarchy</title>
<!-- Node0 -->
<g id="Node000000" class="node">
<title>Node0</title>
<g id="a_Node000000"><a xlink:href="classga_1_1Mutator.xhtml" target="_top" xlink:title="Abstract class for gene mutation of Genome objects.">
<polygon fill="white" stroke="#666666" points="72.25,-39.75 0,-39.75 0,-19 72.25,-19 72.25,-39.75"/>
<text xml:space="preserve" text-anchor="middle" x="36.12" y="-26.25" font-family="Helvetica,sans-Serif" font-size="10.00">ga::Mutator</text>
</a>
</g>
</g>
<!-- Node1 -->
<g id="Node000001" class="node">
<title>Node1</title>
<g id="a_Node000001"><a xlink:href="classalexandria_1_1MCMCMutator.xhtml" target="_top" xlink:title="Mutator which applies MCMC optimization to an ACMIndividual. It can also conduct sensitivity analysis...">
<polygon fill="white" stroke="#666666" points="254.38,-59.75 110.88,-59.75 110.88,-39 254.38,-39 254.38,-59.75"/>
<text xml:space="preserve" text-anchor="middle" x="182.62" y="-46.25" font-family="Helvetica,sans-Serif" font-size="10.00">alexandria::MCMCMutator</text>
</a>
</g>
</g>
<!-- Node0&#45;&gt;Node1 -->
<g id="edge30_Node000000_Node000001" class="edge">
<title>Node0&#45;&gt;Node1</title>
<g id="a_edge30_Node000000_Node000001"><a xlink:title=" ">
<path fill="none" stroke="#63b8ff" d="M83.73,-35.83C92.28,-37.01 101.37,-38.27 110.44,-39.52"/>
<polygon fill="#63b8ff" stroke="#63b8ff" points="84.36,-32.38 73.97,-34.48 83.4,-39.31 84.36,-32.38"/>
</a>
</g>
</g>
<!-- Node2 -->
<g id="Node000002" class="node">
<title>Node2</title>
<g id="a_Node000002"><a xlink:href="classalexandria_1_1PercentMutator.xhtml" target="_top" xlink:title=" ">
<polygon fill="white" stroke="#666666" points="257,-20.75 108.25,-20.75 108.25,0 257,0 257,-20.75"/>
<text xml:space="preserve" text-anchor="middle" x="182.62" y="-7.25" font-family="Helvetica,sans-Serif" font-size="10.00">alexandria::PercentMutator</text>
</a>
</g>
</g>
<!-- Node0&#45;&gt;Node2 -->
<g id="edge31_Node000000_Node000002" class="edge">
<title>Node0&#45;&gt;Node2</title>
<g id="a_edge31_Node000000_Node000002"><a xlink:title=" ">
<path fill="none" stroke="#63b8ff" d="M83.79,-23.24C91.51,-22.22 99.67,-21.15 107.86,-20.07"/>
<polygon fill="#63b8ff" stroke="#63b8ff" points="83.43,-19.76 73.97,-24.53 84.35,-26.7 83.43,-19.76"/>
</a>
</g>
</g>
</g>
</svg>
