<?xml version="1.0" encoding="UTF-8" standalone="no"?>
<!DOCTYPE svg PUBLIC "-//W3C//DTD SVG 1.1//EN"
 "http://www.w3.org/Graphics/SVG/1.1/DTD/svg11.dtd">
<!-- Generated by graphviz version 14.1.2 (20260126.1125)
 -->
<!-- Title: Graphical Class Hierarchy Pages: 1 -->
<svg width="202pt" height="68pt"
 viewBox="0.00 0.00 202.00 68.00" xmlns="http://www.w3.org/2000/svg" xmlns:xlink="http://www.w3.org/1999/xlink">
<g id="graph0" class="graph" transform="scale(1 1) rotate(0) translate(4 63.75)">
<title>Graphical Class Hierarchy</title>
<!-- Node0 -->
<g id="Node000000" class="node">
<title>Node0</title>
<g id="a_Node000000"><a xlink:href="classga_1_1Sorter.xhtml" target="_top" xlink:title="Abstract class for sorting the population based on the fitness of each Individual.">
<polygon fill="white" stroke="#666666" points="63.25,-39.75 0,-39.75 0,-19 63.25,-19 63.25,-39.75"/>
<text xml:space="preserve" text-anchor="middle" x="31.62" y="-26.25" font-family="Helvetica,sans-Serif" font-size="10.00">ga::Sorter</text>
</a>
</g>
</g>
<!-- Node1 -->
<g id="Node000001" class="node">
<title>Node1</title>
<g id="a_Node000001"><a xlink:href="classga_1_1EmptySorter.xhtml" target="_top" xlink:title="Sorter which does nothing. Will be used when sorting is not required.">
<polygon fill="white" stroke="#666666" points="194,-59.75 99.25,-59.75 99.25,-39 194,-39 194,-59.75"/>
<text xml:space="preserve" text-anchor="middle" x="146.62" y="-46.25" font-family="Helvetica,sans-Serif" font-size="10.00">ga::EmptySorter</text>
</a>
</g>
</g>
<!-- Node0&#45;&gt;Node1 -->
<g id="edge38_Node000000_Node000001" class="edge">
<title>Node0&#45;&gt;Node1</title>
<g id="a_edge38_Node000000_Node000001"><a xlink:title=" ">
<path fill="none" stroke="#63b8ff" d="M74.76,-36.83C82.69,-38.24 91.03,-39.71 99.09,-41.14"/>
<polygon fill="#63b8ff" stroke="#63b8ff" points="75.45,-33.4 64.99,-35.1 74.23,-40.29 75.45,-33.4"/>
</a>
</g>
</g>
<!-- Node2 -->
<g id="Node000002" class="node">
<title>Node2</title>
<g id="a_Node000002"><a xlink:href="classga_1_1QuickSorter.xhtml" target="_top" xlink:title="Class for Quick&#45;sort.">
<polygon fill="white" stroke="#666666" points="192.12,-20.75 101.12,-20.75 101.12,0 192.12,0 192.12,-20.75"/>
<text xml:space="preserve" text-anchor="middle" x="146.62" y="-7.25" font-family="Helvetica,sans-Serif" font-size="10.00">ga::QuickSorter</text>
</a>
</g>
</g>
<!-- Node0&#45;&gt;Node2 -->
<g id="edge39_Node000000_Node000002" class="edge">
<title>Node0&#45;&gt;Node2</title>
<g id="a_edge39_Node000000_Node000002"><a xlink:title=" ">
<path fill="none" stroke="#63b8ff" d="M74.73,-22.3C83.24,-20.87 92.21,-19.36 100.8,-17.91"/>
<polygon fill="#63b8ff" stroke="#63b8ff" points="74.28,-18.82 65,-23.93 75.44,-25.73 74.28,-18.82"/>
</a>
</g>
</g>
</g>
</svg>
