<?xml version="1.0" encoding="UTF-8" standalone="no"?>
<!DOCTYPE svg PUBLIC "-//W3C//DTD SVG 1.1//EN"
 "http://www.w3.org/Graphics/SVG/1.1/DTD/svg11.dtd">
<!-- Generated by graphviz version 14.1.2 (20260126.1125)
 -->
<!-- Title: Graphical Class Hierarchy Pages: 1 -->
<svg width="317pt" height="380pt"
 viewBox="0.00 0.00 317.00 380.00" xmlns="http://www.w3.org/2000/svg" xmlns:xlink="http://www.w3.org/1999/xlink">
<g id="graph0" class="graph" transform="scale(1 1) rotate(0) translate(4 375.75)">
<title>Graphical Class Hierarchy</title>
<!-- Node0 -->
<g id="Node000000" class="node">
<title>Node0</title>
<g id="a_Node000000"><a xlink:href="classalexandria_1_1TopologyEntry.xhtml" target="_top" xlink:title="Base class for topology components.">
<polygon fill="white" stroke="#666666" points="142.75,-195.75 0,-195.75 0,-175 142.75,-175 142.75,-195.75"/>
<text xml:space="preserve" text-anchor="middle" x="71.38" y="-182.25" font-family="Helvetica,sans-Serif" font-size="10.00">alexandria::TopologyEntry</text>
</a>
</g>
</g>
<!-- Node1 -->
<g id="Node000001" class="node">
<title>Node1</title>
<g id="a_Node000001"><a xlink:href="classalexandria_1_1Angle.xhtml" target="_top" xlink:title="Angle between two bonds i&#45;j and j&#45;k in a molecule. Atom j of the first bond should be identical to at...">
<polygon fill="white" stroke="#666666" points="294.5,-371.75 193,-371.75 193,-351 294.5,-351 294.5,-371.75"/>
<text xml:space="preserve" text-anchor="middle" x="243.75" y="-358.25" font-family="Helvetica,sans-Serif" font-size="10.00">alexandria::Angle</text>
</a>
</g>
</g>
<!-- Node0&#45;&gt;Node1 -->
<g id="edge16_Node000000_Node000001" class="edge">
<title>Node0&#45;&gt;Node1</title>
<g id="a_edge16_Node000000_Node000001"><a xlink:title=" ">
<path fill="none" stroke="#63b8ff" d="M81.1,-206.3C96.11,-239.76 129.98,-305.24 178.75,-341.38 183.71,-345.05 189.36,-348.06 195.2,-350.52"/>
<polygon fill="#63b8ff" stroke="#63b8ff" points="84.38,-205.06 77.18,-197.28 77.96,-207.85 84.38,-205.06"/>
</a>
</g>
</g>
<!-- Node2 -->
<g id="Node000002" class="node">
<title>Node2</title>
<g id="a_Node000002"><a xlink:href="classalexandria_1_1AtomPair.xhtml" target="_top" xlink:title="Atom pair in a molecule.">
<polygon fill="white" stroke="#666666" points="302.75,-332.75 184.75,-332.75 184.75,-312 302.75,-312 302.75,-332.75"/>
<text xml:space="preserve" text-anchor="middle" x="243.75" y="-319.25" font-family="Helvetica,sans-Serif" font-size="10.00">alexandria::AtomPair</text>
</a>
</g>
</g>
<!-- Node0&#45;&gt;Node2 -->
<g id="edge17_Node000000_Node000002" class="edge">
<title>Node0&#45;&gt;Node2</title>
<g id="a_edge17_Node000000_Node000002"><a xlink:title=" ">
<path fill="none" stroke="#63b8ff" d="M85.48,-205.43C103.49,-231.45 138.3,-276.56 178.75,-302.38 184.44,-306.01 190.84,-309.02 197.33,-311.51"/>
<polygon fill="#63b8ff" stroke="#63b8ff" points="88.57,-203.75 80.07,-197.42 82.77,-207.67 88.57,-203.75"/>
</a>
</g>
</g>
<!-- Node3 -->
<g id="Node000003" class="node">
<title>Node3</title>
<g id="a_Node000003"><a xlink:href="classalexandria_1_1Bond.xhtml" target="_top" xlink:title="Chemical bond in a molecule with associated bond order.">
<polygon fill="white" stroke="#666666" points="293,-293.75 194.5,-293.75 194.5,-273 293,-273 293,-293.75"/>
<text xml:space="preserve" text-anchor="middle" x="243.75" y="-280.25" font-family="Helvetica,sans-Serif" font-size="10.00">alexandria::Bond</text>
</a>
</g>
</g>
<!-- Node0&#45;&gt;Node3 -->
<g id="edge18_Node000000_Node000003" class="edge">
<title>Node0&#45;&gt;Node3</title>
<g id="a_edge18_Node000000_Node000003"><a xlink:title=" ">
<path fill="none" stroke="#63b8ff" d="M92.74,-203.51C113.21,-220.94 146.31,-246.99 178.75,-263.38 185.71,-266.89 193.41,-269.94 200.99,-272.52"/>
<polygon fill="#63b8ff" stroke="#63b8ff" points="95.26,-201.07 85.41,-197.17 90.68,-206.36 95.26,-201.07"/>
</a>
</g>
</g>
<!-- Node4 -->
<g id="Node000004" class="node">
<title>Node4</title>
<g id="a_Node000004"><a xlink:href="classalexandria_1_1Improper.xhtml" target="_top" xlink:title="Improper dihedral defined by one central atom i and three bonds bij, bik, bil in a molecule in a plan...">
<polygon fill="white" stroke="#666666" points="302.75,-254.75 184.75,-254.75 184.75,-234 302.75,-234 302.75,-254.75"/>
<text xml:space="preserve" text-anchor="middle" x="243.75" y="-241.25" font-family="Helvetica,sans-Serif" font-size="10.00">alexandria::Improper</text>
</a>
</g>
</g>
<!-- Node0&#45;&gt;Node4 -->
<g id="edge19_Node000000_Node000004" class="edge">
<title>Node0&#45;&gt;Node4</title>
<g id="a_edge19_Node000000_Node000004"><a xlink:title=" ">
<path fill="none" stroke="#63b8ff" d="M111.29,-200.16C131.36,-207.65 156.28,-216.75 178.75,-224.38 187.9,-227.48 197.84,-230.67 207.11,-233.57"/>
<polygon fill="#63b8ff" stroke="#63b8ff" points="112.7,-196.95 102.1,-196.71 110.24,-203.5 112.7,-196.95"/>
</a>
</g>
</g>
<!-- Node5 -->
<g id="Node000005" class="node">
<title>Node5</title>
<g id="a_Node000005"><a xlink:href="classalexandria_1_1Proper.xhtml" target="_top" xlink:title="Proper dihedral defined by three bonds in a row bij, bjk, bkl in a molecule.">
<polygon fill="white" stroke="#666666" points="296.38,-215.75 191.12,-215.75 191.12,-195 296.38,-195 296.38,-215.75"/>
<text xml:space="preserve" text-anchor="middle" x="243.75" y="-202.25" font-family="Helvetica,sans-Serif" font-size="10.00">alexandria::Proper</text>
</a>
</g>
</g>
<!-- Node0&#45;&gt;Node5 -->
<g id="edge20_Node000000_Node000005" class="edge">
<title>Node0&#45;&gt;Node5</title>
<g id="a_edge20_Node000000_Node000005"><a xlink:title=" ">
<path fill="none" stroke="#63b8ff" d="M154.42,-195.01C166.75,-196.45 179.17,-197.91 190.64,-199.26"/>
<polygon fill="#63b8ff" stroke="#63b8ff" points="154.99,-191.55 144.65,-193.86 154.18,-198.5 154.99,-191.55"/>
</a>
</g>
</g>
<!-- Node6 -->
<g id="Node000006" class="node">
<title>Node6</title>
<g id="a_Node000006"><a xlink:href="classalexandria_1_1SingleAtom.xhtml" target="_top" xlink:title="Single atom.">
<polygon fill="white" stroke="#666666" points="308.75,-176.75 178.75,-176.75 178.75,-156 308.75,-156 308.75,-176.75"/>
<text xml:space="preserve" text-anchor="middle" x="243.75" y="-163.25" font-family="Helvetica,sans-Serif" font-size="10.00">alexandria::SingleAtom</text>
</a>
</g>
</g>
<!-- Node0&#45;&gt;Node6 -->
<g id="edge21_Node000000_Node000006" class="edge">
<title>Node0&#45;&gt;Node6</title>
<g id="a_edge21_Node000000_Node000006"><a xlink:title=" ">
<path fill="none" stroke="#63b8ff" d="M154.48,-176.22C162.53,-175.32 170.62,-174.42 178.46,-173.54"/>
<polygon fill="#63b8ff" stroke="#63b8ff" points="154.2,-172.73 144.65,-177.31 154.98,-179.68 154.2,-172.73"/>
</a>
</g>
</g>
<!-- Node7 -->
<g id="Node000007" class="node">
<title>Node7</title>
<g id="a_Node000007"><a xlink:href="classalexandria_1_1Vsite1.xhtml" target="_top" xlink:title="Virtual site on an atom.">
<polygon fill="white" stroke="#666666" points="296,-137.75 191.5,-137.75 191.5,-117 296,-117 296,-137.75"/>
<text xml:space="preserve" text-anchor="middle" x="243.75" y="-124.25" font-family="Helvetica,sans-Serif" font-size="10.00">alexandria::Vsite1</text>
</a>
</g>
</g>
<!-- Node0&#45;&gt;Node7 -->
<g id="edge22_Node000000_Node000007" class="edge">
<title>Node0&#45;&gt;Node7</title>
<g id="a_edge22_Node000000_Node000007"><a xlink:title=" ">
<path fill="none" stroke="#63b8ff" d="M112.16,-170.73C132.09,-163.51 156.63,-154.78 178.75,-147.38 187.91,-144.31 197.86,-141.13 207.12,-138.23"/>
<polygon fill="#63b8ff" stroke="#63b8ff" points="111.24,-167.35 103.04,-174.06 113.63,-173.92 111.24,-167.35"/>
</a>
</g>
</g>
<!-- Node8 -->
<g id="Node000008" class="node">
<title>Node8</title>
<g id="a_Node000008"><a xlink:href="classalexandria_1_1Vsite2.xhtml" target="_top" xlink:title="Virtual site on a linear bond.">
<polygon fill="white" stroke="#666666" points="296,-98.75 191.5,-98.75 191.5,-78 296,-78 296,-98.75"/>
<text xml:space="preserve" text-anchor="middle" x="243.75" y="-85.25" font-family="Helvetica,sans-Serif" font-size="10.00">alexandria::Vsite2</text>
</a>
</g>
</g>
<!-- Node0&#45;&gt;Node8 -->
<g id="edge23_Node000000_Node000008" class="edge">
<title>Node0&#45;&gt;Node8</title>
<g id="a_edge23_Node000000_Node000008"><a xlink:title=" ">
<path fill="none" stroke="#63b8ff" d="M92.78,-167.49C113.29,-150.29 146.41,-124.59 178.75,-108.38 185.83,-104.83 193.66,-101.75 201.35,-99.15"/>
<polygon fill="#63b8ff" stroke="#63b8ff" points="90.78,-164.59 85.44,-173.74 95.32,-169.92 90.78,-164.59"/>
</a>
</g>
</g>
<!-- Node9 -->
<g id="Node000009" class="node">
<title>Node9</title>
<g id="a_Node000009"><a xlink:href="classalexandria_1_1Vsite3.xhtml" target="_top" xlink:title="Virtual site based on 3 particles.">
<polygon fill="white" stroke="#666666" points="296,-59.75 191.5,-59.75 191.5,-39 296,-39 296,-59.75"/>
<text xml:space="preserve" text-anchor="middle" x="243.75" y="-46.25" font-family="Helvetica,sans-Serif" font-size="10.00">alexandria::Vsite3</text>
</a>
</g>
</g>
<!-- Node0&#45;&gt;Node9 -->
<g id="edge24_Node000000_Node000009" class="edge">
<title>Node0&#45;&gt;Node9</title>
<g id="a_edge24_Node000000_Node000009"><a xlink:title=" ">
<path fill="none" stroke="#63b8ff" d="M85.52,-165.49C103.58,-139.7 138.43,-94.98 178.75,-69.38 184.55,-65.69 191.07,-62.65 197.68,-60.14"/>
<polygon fill="#63b8ff" stroke="#63b8ff" points="82.85,-163.2 80.1,-173.43 88.63,-167.14 82.85,-163.2"/>
</a>
</g>
</g>
<!-- Node10 -->
<g id="Node000010" class="node">
<title>Node10</title>
<g id="a_Node000010"><a xlink:href="classalexandria_1_1Vsite4.xhtml" target="_top" xlink:title="Virtual site based on 4 particles.">
<polygon fill="white" stroke="#666666" points="296,-20.75 191.5,-20.75 191.5,0 296,0 296,-20.75"/>
<text xml:space="preserve" text-anchor="middle" x="243.75" y="-7.25" font-family="Helvetica,sans-Serif" font-size="10.00">alexandria::Vsite4</text>
</a>
</g>
</g>
<!-- Node0&#45;&gt;Node10 -->
<g id="edge25_Node000000_Node000010" class="edge">
<title>Node0&#45;&gt;Node10</title>
<g id="a_edge25_Node000000_Node000010"><a xlink:title=" ">
<path fill="none" stroke="#63b8ff" d="M81.35,-164.1C96.52,-130.71 130.37,-66.1 178.75,-30.38 183.71,-26.71 189.36,-23.7 195.21,-21.24"/>
<polygon fill="#63b8ff" stroke="#63b8ff" points="78.21,-162.57 77.38,-173.13 84.61,-165.39 78.21,-162.57"/>
</a>
</g>
</g>
</g>
</svg>
