<?xml version="1.0" encoding="UTF-8" standalone="no"?>
<!DOCTYPE svg PUBLIC "-//W3C//DTD SVG 1.1//EN"
 "http://www.w3.org/Graphics/SVG/1.1/DTD/svg11.dtd">
<!-- Generated by graphviz version 14.1.2 (20260126.1125)
 -->
<!-- Title: src/act/statistics/statistics.h Pages: 1 -->
<svg width="257pt" height="98pt"
 viewBox="0.00 0.00 257.00 98.00" xmlns="http://www.w3.org/2000/svg" xmlns:xlink="http://www.w3.org/1999/xlink">
<g id="graph0" class="graph" transform="scale(1 1) rotate(0) translate(4 94.25)">
<title>src/act/statistics/statistics.h</title>
<!-- Node1 -->
<g id="Node000001" class="node">
<title>Node1</title>
<g id="a_Node000001"><a xlink:title="Declares simple statistics toolbox.">
<polygon fill="#999999" stroke="#666666" points="134.38,-90.25 38.88,-90.25 38.88,-56.75 134.38,-56.75 134.38,-90.25"/>
<text xml:space="preserve" text-anchor="start" x="46.88" y="-76.75" font-family="Helvetica,sans-Serif" font-size="10.00">src/act/statistics</text>
<text xml:space="preserve" text-anchor="middle" x="86.62" y="-64" font-family="Helvetica,sans-Serif" font-size="10.00">/statistics.h</text>
</a>
</g>
</g>
<!-- Node2 -->
<g id="Node000002" class="node">
<title>Node2</title>
<g id="a_Node000002"><a xlink:title=" ">
<polygon fill="#e0e0e0" stroke="#999999" points="45.25,-20.75 0,-20.75 0,0 45.25,0 45.25,-20.75"/>
<text xml:space="preserve" text-anchor="middle" x="22.62" y="-7.25" font-family="Helvetica,sans-Serif" font-size="10.00">cstdio</text>
</a>
</g>
</g>
<!-- Node1&#45;&gt;Node2 -->
<g id="edge1_Node000001_Node000002" class="edge">
<title>Node1&#45;&gt;Node2</title>
<g id="a_edge1_Node000001_Node000002"><a xlink:title=" ">
<path fill="none" stroke="#63b8ff" d="M69.81,-56.44C61.03,-48.06 50.27,-37.78 41.24,-29.16"/>
<polygon fill="#63b8ff" stroke="#63b8ff" points="43.67,-26.64 34.02,-22.26 38.84,-31.7 43.67,-26.64"/>
</a>
</g>
</g>
<!-- Node3 -->
<g id="Node000003" class="node">
<title>Node3</title>
<g id="a_Node000003"><a xlink:title=" ">
<polygon fill="#e0e0e0" stroke="#999999" points="110,-20.75 63.25,-20.75 63.25,0 110,0 110,-20.75"/>
<text xml:space="preserve" text-anchor="middle" x="86.62" y="-7.25" font-family="Helvetica,sans-Serif" font-size="10.00">vector</text>
</a>
</g>
</g>
<!-- Node1&#45;&gt;Node3 -->
<g id="edge2_Node000001_Node000003" class="edge">
<title>Node1&#45;&gt;Node3</title>
<g id="a_edge2_Node000001_Node000003"><a xlink:title=" ">
<path fill="none" stroke="#63b8ff" d="M86.62,-56.44C86.62,-49.1 86.62,-40.32 86.62,-32.46"/>
<polygon fill="#63b8ff" stroke="#63b8ff" points="90.13,-32.73 86.63,-22.73 83.13,-32.73 90.13,-32.73"/>
</a>
</g>
</g>
<!-- Node4 -->
<g id="Node000004" class="node">
<title>Node4</title>
<g id="a_Node000004"><a xlink:title=" ">
<polygon fill="#e0e0e0" stroke="#999999" points="248.75,-20.75 128.5,-20.75 128.5,0 248.75,0 248.75,-20.75"/>
<text xml:space="preserve" text-anchor="middle" x="188.62" y="-7.25" font-family="Helvetica,sans-Serif" font-size="10.00">gromacs/utility/real.h</text>
</a>
</g>
</g>
<!-- Node1&#45;&gt;Node4 -->
<g id="edge3_Node000001_Node000004" class="edge">
<title>Node1&#45;&gt;Node4</title>
<g id="a_edge3_Node000001_Node000004"><a xlink:title=" ">
<path fill="none" stroke="#63b8ff" d="M113.69,-56.28C128.84,-47.2 147.64,-35.93 162.62,-26.96"/>
<polygon fill="#63b8ff" stroke="#63b8ff" points="164.21,-30.09 170.99,-21.94 160.61,-24.08 164.21,-30.09"/>
</a>
</g>
</g>
</g>
</svg>
