<?xml version="1.0" encoding="UTF-8" standalone="no"?>
<!DOCTYPE svg PUBLIC "-//W3C//DTD SVG 1.1//EN"
 "http://www.w3.org/Graphics/SVG/1.1/DTD/svg11.dtd">
<!-- Generated by graphviz version 14.1.2 (20260126.1125)
 -->
<!-- Title: src/act/alexandria/thermochemistry.h Pages: 1 -->
<svg width="579pt" height="98pt"
 viewBox="0.00 0.00 579.00 98.00" xmlns="http://www.w3.org/2000/svg" xmlns:xlink="http://www.w3.org/1999/xlink">
<g id="graph0" class="graph" transform="scale(1 1) rotate(0) translate(4 94.25)">
<title>src/act/alexandria/thermochemistry.h</title>
<!-- Node1 -->
<g id="Node000001" class="node">
<title>Node1</title>
<g id="a_Node000001"><a xlink:title="Code for computing entropy and heat capacity from eigenvalues.">
<polygon fill="#999999" stroke="#666666" points="237.12,-90.25 126.62,-90.25 126.62,-56.75 237.12,-56.75 237.12,-90.25"/>
<text xml:space="preserve" text-anchor="start" x="134.62" y="-76.75" font-family="Helvetica,sans-Serif" font-size="10.00">src/act/alexandria</text>
<text xml:space="preserve" text-anchor="middle" x="181.88" y="-64" font-family="Helvetica,sans-Serif" font-size="10.00">/thermochemistry.h</text>
</a>
</g>
</g>
<!-- Node2 -->
<g id="Node000002" class="node">
<title>Node2</title>
<g id="a_Node000002"><a xlink:title=" ">
<polygon fill="#e0e0e0" stroke="#999999" points="37.75,-20.75 0,-20.75 0,0 37.75,0 37.75,-20.75"/>
<text xml:space="preserve" text-anchor="middle" x="18.88" y="-7.25" font-family="Helvetica,sans-Serif" font-size="10.00">map</text>
</a>
</g>
</g>
<!-- Node1&#45;&gt;Node2 -->
<g id="edge1_Node000001_Node000002" class="edge">
<title>Node1&#45;&gt;Node2</title>
<g id="a_edge1_Node000001_Node000002"><a xlink:title=" ">
<path fill="none" stroke="#63b8ff" d="M138.62,-56.28C110.32,-45.67 74.07,-32.07 48.9,-22.63"/>
<polygon fill="#63b8ff" stroke="#63b8ff" points="50.19,-19.38 39.6,-19.15 47.74,-25.94 50.19,-19.38"/>
</a>
</g>
</g>
<!-- Node3 -->
<g id="Node000003" class="node">
<title>Node3</title>
<g id="a_Node000003"><a xlink:title=" ">
<polygon fill="#e0e0e0" stroke="#999999" points="102.25,-20.75 55.5,-20.75 55.5,0 102.25,0 102.25,-20.75"/>
<text xml:space="preserve" text-anchor="middle" x="78.88" y="-7.25" font-family="Helvetica,sans-Serif" font-size="10.00">vector</text>
</a>
</g>
</g>
<!-- Node1&#45;&gt;Node3 -->
<g id="edge2_Node000001_Node000003" class="edge">
<title>Node1&#45;&gt;Node3</title>
<g id="a_edge2_Node000001_Node000003"><a xlink:title=" ">
<path fill="none" stroke="#63b8ff" d="M154.54,-56.28C139.24,-47.2 120.26,-35.93 105.13,-26.96"/>
<polygon fill="#63b8ff" stroke="#63b8ff" points="107.06,-24.03 96.67,-21.94 103.49,-30.05 107.06,-24.03"/>
</a>
</g>
</g>
<!-- Node4 -->
<g id="Node000004" class="node">
<title>Node4</title>
<g id="a_Node000004"><a xlink:title=" ">
<polygon fill="#e0e0e0" stroke="#999999" points="243.12,-20.75 120.62,-20.75 120.62,0 243.12,0 243.12,-20.75"/>
<text xml:space="preserve" text-anchor="middle" x="181.88" y="-7.25" font-family="Helvetica,sans-Serif" font-size="10.00">gromacs/math/units.h</text>
</a>
</g>
</g>
<!-- Node1&#45;&gt;Node4 -->
<g id="edge3_Node000001_Node000004" class="edge">
<title>Node1&#45;&gt;Node4</title>
<g id="a_edge3_Node000001_Node000004"><a xlink:title=" ">
<path fill="none" stroke="#63b8ff" d="M181.88,-56.44C181.88,-49.1 181.88,-40.32 181.88,-32.46"/>
<polygon fill="#63b8ff" stroke="#63b8ff" points="185.38,-32.73 181.88,-22.73 178.38,-32.73 185.38,-32.73"/>
</a>
</g>
</g>
<!-- Node5 -->
<g id="Node000005" class="node">
<title>Node5</title>
<g id="a_Node000005"><a xlink:title=" ">
<polygon fill="#e0e0e0" stroke="#999999" points="376.75,-20.75 261,-20.75 261,0 376.75,0 376.75,-20.75"/>
<text xml:space="preserve" text-anchor="middle" x="318.88" y="-7.25" font-family="Helvetica,sans-Serif" font-size="10.00">gromacs/math/vec.h</text>
</a>
</g>
</g>
<!-- Node1&#45;&gt;Node5 -->
<g id="edge4_Node000001_Node000005" class="edge">
<title>Node1&#45;&gt;Node5</title>
<g id="a_edge4_Node000001_Node000005"><a xlink:title=" ">
<path fill="none" stroke="#63b8ff" d="M218.23,-56.28C239.46,-46.81 266.03,-34.95 286.53,-25.81"/>
<polygon fill="#63b8ff" stroke="#63b8ff" points="287.84,-29.05 295.55,-21.78 284.99,-22.66 287.84,-29.05"/>
</a>
</g>
</g>
<!-- Node6 -->
<g id="Node000006" class="node">
<title>Node6</title>
<g id="a_Node000006"><a xlink:title=" ">
<polygon fill="#e0e0e0" stroke="#999999" points="570.75,-20.75 395,-20.75 395,0 570.75,0 570.75,-20.75"/>
<text xml:space="preserve" text-anchor="middle" x="482.88" y="-7.25" font-family="Helvetica,sans-Serif" font-size="10.00">gromacs/utility/basedefinitions.h</text>
</a>
</g>
</g>
<!-- Node1&#45;&gt;Node6 -->
<g id="edge5_Node000001_Node000006" class="edge">
<title>Node1&#45;&gt;Node6</title>
<g id="a_edge5_Node000001_Node000006"><a xlink:title=" ">
<path fill="none" stroke="#63b8ff" d="M237.43,-61.22C290.24,-50.49 369.41,-34.42 423.46,-23.44"/>
<polygon fill="#63b8ff" stroke="#63b8ff" points="424.01,-26.9 433.11,-21.48 422.61,-20.04 424.01,-26.9"/>
</a>
</g>
</g>
</g>
</svg>
