<?xml version="1.0" encoding="UTF-8" standalone="no"?>
<!DOCTYPE svg PUBLIC "-//W3C//DTD SVG 1.1//EN"
 "http://www.w3.org/Graphics/SVG/1.1/DTD/svg11.dtd">
<!-- Generated by graphviz version 14.1.2 (20260126.1125)
 -->
<!-- Title: src/act/forces/tests/vsiteTest.cpp Pages: 1 -->
<svg width="865pt" height="98pt"
 viewBox="0.00 0.00 865.00 98.00" xmlns="http://www.w3.org/2000/svg" xmlns:xlink="http://www.w3.org/1999/xlink">
<g id="graph0" class="graph" transform="scale(1 1) rotate(0) translate(4 94.25)">
<title>src/act/forces/tests/vsiteTest.cpp</title>
<!-- Node1 -->
<g id="Node000001" class="node">
<title>Node1</title>
<g id="a_Node000001"><a xlink:title="Implements test of bonded force routines.">
<polygon fill="#999999" stroke="#666666" points="366,-90.25 257.75,-90.25 257.75,-56.75 366,-56.75 366,-90.25"/>
<text xml:space="preserve" text-anchor="start" x="265.75" y="-76.75" font-family="Helvetica,sans-Serif" font-size="10.00">src/act/forces/tests</text>
<text xml:space="preserve" text-anchor="middle" x="311.88" y="-64" font-family="Helvetica,sans-Serif" font-size="10.00">/vsiteTest.cpp</text>
</a>
</g>
</g>
<!-- Node2 -->
<g id="Node000002" class="node">
<title>Node2</title>
<g id="a_Node000002"><a xlink:href="actpre_8h.xhtml" target="_top" xlink:title="Prerequisite header file for ACT build.">
<polygon fill="white" stroke="#666666" points="55.75,-20.75 0,-20.75 0,0 55.75,0 55.75,-20.75"/>
<text xml:space="preserve" text-anchor="middle" x="27.88" y="-7.25" font-family="Helvetica,sans-Serif" font-size="10.00">actpre.h</text>
</a>
</g>
</g>
<!-- Node1&#45;&gt;Node2 -->
<g id="edge1_Node000001_Node000002" class="edge">
<title>Node1&#45;&gt;Node2</title>
<g id="a_edge1_Node000001_Node000002"><a xlink:title=" ">
<path fill="none" stroke="#63b8ff" d="M257.28,-61.74C209.58,-52.19 138.21,-37.53 67.08,-21.19"/>
<polygon fill="#63b8ff" stroke="#63b8ff" points="68.13,-17.84 57.6,-19 66.56,-24.66 68.13,-17.84"/>
</a>
</g>
</g>
<!-- Node3 -->
<g id="Node000003" class="node">
<title>Node3</title>
<g id="a_Node000003"><a xlink:title=" ">
<polygon fill="#e0e0e0" stroke="#999999" points="120.25,-20.75 73.5,-20.75 73.5,0 120.25,0 120.25,-20.75"/>
<text xml:space="preserve" text-anchor="middle" x="96.88" y="-7.25" font-family="Helvetica,sans-Serif" font-size="10.00">cmath</text>
</a>
</g>
</g>
<!-- Node1&#45;&gt;Node3 -->
<g id="edge2_Node000001_Node000003" class="edge">
<title>Node1&#45;&gt;Node3</title>
<g id="a_edge2_Node000001_Node000003"><a xlink:title=" ">
<path fill="none" stroke="#63b8ff" d="M257.39,-57.24C223.54,-47.72 178.85,-35.1 131.43,-21.47"/>
<polygon fill="#63b8ff" stroke="#63b8ff" points="132.67,-18.18 122.09,-18.78 130.73,-24.91 132.67,-18.18"/>
</a>
</g>
</g>
<!-- Node4 -->
<g id="Node000004" class="node">
<title>Node4</title>
<g id="a_Node000004"><a xlink:title=" ">
<polygon fill="#e0e0e0" stroke="#999999" points="195.5,-20.75 138.25,-20.75 138.25,0 195.5,0 195.5,-20.75"/>
<text xml:space="preserve" text-anchor="middle" x="166.88" y="-7.25" font-family="Helvetica,sans-Serif" font-size="10.00">memory</text>
</a>
</g>
</g>
<!-- Node1&#45;&gt;Node4 -->
<g id="edge3_Node000001_Node000004" class="edge">
<title>Node1&#45;&gt;Node4</title>
<g id="a_edge3_Node000001_Node000004"><a xlink:title=" ">
<path fill="none" stroke="#63b8ff" d="M273.4,-56.28C250.72,-46.72 222.29,-34.74 200.51,-25.55"/>
<polygon fill="#63b8ff" stroke="#63b8ff" points="202.07,-22.41 191.49,-21.75 199.35,-28.86 202.07,-22.41"/>
</a>
</g>
</g>
<!-- Node5 -->
<g id="Node000005" class="node">
<title>Node5</title>
<g id="a_Node000005"><a xlink:title=" ">
<polygon fill="#e0e0e0" stroke="#999999" points="290.62,-20.75 213.12,-20.75 213.12,0 290.62,0 290.62,-20.75"/>
<text xml:space="preserve" text-anchor="middle" x="251.88" y="-7.25" font-family="Helvetica,sans-Serif" font-size="10.00">gtest/gtest.h</text>
</a>
</g>
</g>
<!-- Node1&#45;&gt;Node5 -->
<g id="edge4_Node000001_Node000005" class="edge">
<title>Node1&#45;&gt;Node5</title>
<g id="a_edge4_Node000001_Node000005"><a xlink:title=" ">
<path fill="none" stroke="#63b8ff" d="M296.11,-56.44C287.97,-48.14 278,-37.99 269.59,-29.43"/>
<polygon fill="#63b8ff" stroke="#63b8ff" points="272.1,-26.98 262.6,-22.3 267.1,-31.89 272.1,-26.98"/>
</a>
</g>
</g>
<!-- Node6 -->
<g id="Node000006" class="node">
<title>Node6</title>
<g id="a_Node000006"><a xlink:title=" ">
<polygon fill="#e0e0e0" stroke="#999999" points="434.62,-20.75 309.12,-20.75 309.12,0 434.62,0 434.62,-20.75"/>
<text xml:space="preserve" text-anchor="middle" x="371.88" y="-7.25" font-family="Helvetica,sans-Serif" font-size="10.00">testutils/cmdlinetest.h</text>
</a>
</g>
</g>
<!-- Node1&#45;&gt;Node6 -->
<g id="edge5_Node000001_Node000006" class="edge">
<title>Node1&#45;&gt;Node6</title>
<g id="a_edge5_Node000001_Node000006"><a xlink:title=" ">
<path fill="none" stroke="#63b8ff" d="M327.64,-56.44C335.78,-48.14 345.75,-37.99 354.16,-29.43"/>
<polygon fill="#63b8ff" stroke="#63b8ff" points="356.65,-31.89 361.15,-22.3 351.65,-26.98 356.65,-31.89"/>
</a>
</g>
</g>
<!-- Node7 -->
<g id="Node000007" class="node">
<title>Node7</title>
<g id="a_Node000007"><a xlink:title=" ">
<polygon fill="#e0e0e0" stroke="#999999" points="555.38,-20.75 452.38,-20.75 452.38,0 555.38,0 555.38,-20.75"/>
<text xml:space="preserve" text-anchor="middle" x="503.88" y="-7.25" font-family="Helvetica,sans-Serif" font-size="10.00">testutils/refdata.h</text>
</a>
</g>
</g>
<!-- Node1&#45;&gt;Node7 -->
<g id="edge6_Node000001_Node000007" class="edge">
<title>Node1&#45;&gt;Node7</title>
<g id="a_edge6_Node000001_Node000007"><a xlink:title=" ">
<path fill="none" stroke="#63b8ff" d="M362.82,-56.28C393.95,-46.37 433.26,-33.86 462.46,-24.56"/>
<polygon fill="#63b8ff" stroke="#63b8ff" points="463.21,-27.99 471.68,-21.62 461.09,-21.32 463.21,-27.99"/>
</a>
</g>
</g>
<!-- Node8 -->
<g id="Node000008" class="node">
<title>Node8</title>
<g id="a_Node000008"><a xlink:title=" ">
<polygon fill="#e0e0e0" stroke="#999999" points="694.75,-20.75 573,-20.75 573,0 694.75,0 694.75,-20.75"/>
<text xml:space="preserve" text-anchor="middle" x="633.88" y="-7.25" font-family="Helvetica,sans-Serif" font-size="10.00">testutils/testasserts.h</text>
</a>
</g>
</g>
<!-- Node1&#45;&gt;Node8 -->
<g id="edge7_Node000001_Node000008" class="edge">
<title>Node1&#45;&gt;Node8</title>
<g id="a_edge7_Node000001_Node000008"><a xlink:title=" ">
<path fill="none" stroke="#63b8ff" d="M366.5,-62.13C423.05,-51.4 511.3,-34.64 570.79,-23.35"/>
<polygon fill="#63b8ff" stroke="#63b8ff" points="571.26,-26.82 580.43,-21.52 569.96,-19.95 571.26,-26.82"/>
</a>
</g>
</g>
<!-- Node9 -->
<g id="Node000009" class="node">
<title>Node9</title>
<g id="a_Node000009"><a xlink:title=" ">
<polygon fill="#e0e0e0" stroke="#999999" points="857,-20.75 712.75,-20.75 712.75,0 857,0 857,-20.75"/>
<text xml:space="preserve" text-anchor="middle" x="784.88" y="-7.25" font-family="Helvetica,sans-Serif" font-size="10.00">testutils/testfilemanager.h</text>
</a>
</g>
</g>
<!-- Node1&#45;&gt;Node9 -->
<g id="edge8_Node000001_Node000009" class="edge">
<title>Node1&#45;&gt;Node9</title>
<g id="a_edge8_Node000001_Node000009"><a xlink:title=" ">
<path fill="none" stroke="#63b8ff" d="M366.13,-65.49C448.18,-54.89 604.48,-34.69 701.17,-22.19"/>
<polygon fill="#63b8ff" stroke="#63b8ff" points="701.4,-25.69 710.87,-20.94 700.51,-18.75 701.4,-25.69"/>
</a>
</g>
</g>
</g>
</svg>
